<svg width="180" height="48" viewBox="0 0 180 48" fill="none" xmlns="http://www.w3.org/2000/svg">
<g id="logo">
<g id="117-ironman 1">
<path id="iron-man" d="M0 0H48V48H0V0Z" fill="#323232"/>
<g id="Group">
<path id="Vector_2" d="M16.8191 15.1872C17.8223 13.968 19.1807 13.0176 20.7503 12.456C21.7535 12.1008 22.8431 11.904 23.9807 11.904C25.1183 11.904 26.2079 12.1008 27.2111 12.456C28.7807 13.0128 30.1391 13.968 31.1423 15.1872C32.2991 16.584 32.0207 22.8624 31.9103 24.2256C31.8287 24.8112 31.6751 25.3488 31.4783 25.8192C31.4735 25.824 31.4735 25.8336 31.4687 25.8384C31.2191 26.4336 30.9023 26.928 30.5951 27.288C30.4559 28.608 30.4271 30.6192 30.3023 31.9584C29.8175 32.808 29.5727 33.2448 28.8431 34.0272L28.5311 34.3392C28.2671 34.6032 27.9839 34.8864 27.6863 35.184L27.5039 35.3664C27.5039 35.3664 27.4895 35.3808 27.4559 35.424C27.4367 35.4432 27.4223 35.4624 27.4079 35.4816C27.3359 35.5632 27.2207 35.7024 27.0431 35.9184C26.9951 35.976 26.9423 36.0384 26.8943 36.1008H23.9759H21.0575C21.0095 36.0384 20.9567 35.9808 20.9087 35.9184C20.7311 35.7072 20.6159 35.568 20.5439 35.4816C20.5295 35.4624 20.5103 35.4432 20.4959 35.424C20.4623 35.3856 20.4479 35.3664 20.4479 35.3664L20.2655 35.184C19.9679 34.8864 19.6895 34.6032 19.4207 34.3392L19.1087 34.0272C18.3791 33.2448 18.1343 32.8128 17.6495 31.9584C17.5295 30.6192 17.4959 28.608 17.3567 27.288C17.0495 26.928 16.7327 26.4384 16.4831 25.8384C16.4783 25.8336 16.4783 25.8288 16.4735 25.8192C16.2767 25.3488 16.1231 24.8112 16.0415 24.2256C15.9407 22.8672 15.6623 16.5888 16.8191 15.1872ZM17.5343 23.808C17.8031 24.0096 19.3967 24.2208 19.9679 24.1728C21.4271 24.0528 22.1663 23.8176 22.3103 23.7744C22.5695 23.2176 22.6415 23.0784 22.6415 23.0784H23.9807H25.3199C25.3199 23.0784 25.3919 23.2176 25.6511 23.7744C25.7999 23.8176 26.5343 24.0528 27.9935 24.1728C28.5647 24.2208 30.1583 24.0096 30.4271 23.808C30.6719 23.0784 30.7919 22.2288 30.7919 22.2288C30.7919 22.2288 30.6383 21.816 30.5327 21.3936C29.6975 22.2432 24.9263 22.44 24.1055 22.464C24.0815 22.464 24.0623 22.4688 24.0479 22.4688C24.0431 22.4688 24.0431 22.4688 24.0383 22.4688C23.9999 22.4736 23.9807 22.4736 23.9807 22.4736C23.9807 22.4736 23.9615 22.4736 23.9231 22.4688C23.9183 22.4688 23.9183 22.4688 23.9135 22.4688C23.8991 22.4688 23.8799 22.4688 23.8559 22.464C23.0303 22.4352 18.2639 22.2432 17.4287 21.3936C17.3231 21.8112 17.1695 22.2288 17.1695 22.2288C17.1695 22.2288 17.2895 23.0784 17.5343 23.808Z" fill="#DD2E2E"/>
<g id="Group_2">
<path id="Vector_3" d="M17.1696 22.248C17.1696 22.248 17.2896 23.0976 17.5344 23.8272C17.8032 24.0288 19.3968 24.24 19.968 24.192C21.4272 24.072 22.1664 23.8512 22.3104 23.8032C22.5696 23.2464 22.6416 23.1216 22.6416 23.1216H25.32C25.32 23.1216 25.392 23.2464 25.6512 23.8032C25.8 23.8464 26.5344 24.0768 27.9936 24.1968C28.5648 24.2448 30.1584 24.0288 30.4272 23.8272C30.672 23.0976 30.792 22.2432 30.792 22.2432C30.792 22.2432 30.6384 21.8304 30.5328 21.408C29.6976 22.2576 24.9264 22.464 24.1056 22.4928C24.0816 22.4928 24.0624 22.5072 24.048 22.5072H24.0384C24 22.5072 23.9808 22.512 23.9808 22.512C23.9808 22.512 23.9616 22.5072 23.9232 22.5072H23.9136C23.8992 22.5072 23.88 22.4928 23.856 22.4928C23.0304 22.464 18.264 22.2624 17.4288 21.4128C17.3232 21.84 17.1696 22.248 17.1696 22.248Z" fill="#B8FFFF" stroke="black" stroke-width="0.111077" stroke-miterlimit="10"/>
<path id="Vector_4" d="M17.1836 22.2534C17.1836 22.2534 17.3036 23.0982 17.5484 23.823C17.8172 24.0198 19.406 24.231 19.9772 24.183C21.4316 24.063 22.1708 23.8422 22.3148 23.799C22.574 23.247 22.646 23.1222 22.646 23.1222H25.3148C25.3148 23.1222 25.3868 23.247 25.646 23.799C25.7948 23.8422 26.5292 24.0678 27.9836 24.1878C28.5548 24.2358 30.1436 24.0198 30.4124 23.823C30.6572 23.0982 30.7772 22.2534 30.7772 22.2534C30.7772 22.2534 30.6236 21.8406 30.518 21.4278C29.6828 22.2678 24.926 22.4646 24.1052 22.503C24.0812 22.503 24.062 22.5174 24.0476 22.5174H24.038C23.9996 22.5174 23.9804 22.5222 23.9804 22.5222C23.9804 22.5222 23.9612 22.5174 23.9228 22.5174H23.9132C23.8988 22.5174 23.8796 22.503 23.8556 22.503C23.0348 22.4646 18.278 22.2726 17.4428 21.4326C17.3372 21.8502 17.1836 22.2534 17.1836 22.2534Z" fill="#B9FFFF"/>
<path id="Vector_5" d="M17.2031 22.2577C17.2031 22.2577 17.3231 23.0929 17.5679 23.8129C17.8367 24.0097 19.4207 24.2209 19.9871 24.1729C21.4415 24.0529 22.1711 23.8369 22.3199 23.7937C22.5791 23.2465 22.6511 23.1217 22.6511 23.1217H25.3151C25.3151 23.1217 25.3871 23.2465 25.6463 23.7937C25.7951 23.8369 26.5247 24.0625 27.9791 24.1777C28.5503 24.2257 30.1343 24.0145 30.3983 23.8177C30.6383 23.1025 30.7631 22.2625 30.7631 22.2625C30.7631 22.2625 30.6095 21.8545 30.5039 21.4417C29.6735 22.2721 24.9263 22.4689 24.1055 22.5073C24.0815 22.5073 24.0623 22.5217 24.0479 22.5217H24.0383C23.9999 22.5217 23.9807 22.5217 23.9807 22.5217C23.9807 22.5217 23.9615 22.5217 23.9231 22.5217H23.9135C23.8991 22.5217 23.8799 22.5073 23.8559 22.5073C23.0351 22.4689 18.2927 22.2817 17.4575 21.4465C17.3567 21.8593 17.2031 22.2577 17.2031 22.2577Z" fill="#BAFFFF"/>
<path id="Vector_6" d="M17.2176 22.2624C17.2176 22.2624 17.3376 23.0928 17.5776 23.8032C17.8464 24 19.4256 24.2064 19.992 24.1584C21.4416 24.0384 22.1712 23.8224 22.32 23.784C22.5792 23.2416 22.6512 23.1168 22.6512 23.1168H25.3056C25.3056 23.1168 25.3776 23.2368 25.6368 23.784C25.7808 23.8272 26.5152 24.048 27.9648 24.168C28.5312 24.216 30.1104 24.0048 30.3792 23.808C30.6192 23.0976 30.7392 22.2672 30.7392 22.2672C30.7392 22.2672 30.5856 21.864 30.48 21.456C29.6496 22.2816 24.9168 22.4736 24.1008 22.512C24.0768 22.512 24.0576 22.5264 24.0432 22.5264H24.0336C23.9952 22.5264 23.976 22.5264 23.976 22.5264C23.976 22.5264 23.9568 22.5264 23.9184 22.5264H23.9088C23.8944 22.5264 23.8752 22.512 23.8512 22.512C23.0352 22.4784 18.3024 22.2864 17.472 21.4608C17.3712 21.864 17.2176 22.2624 17.2176 22.2624Z" fill="#BBFFFF"/>
<path id="Vector_7" d="M17.2368 22.2672C17.2368 22.2672 17.3568 23.088 17.5968 23.7936C17.8608 23.9856 19.44 24.192 20.0064 24.144C21.4512 24.0288 22.1808 23.8128 22.3248 23.7696C22.584 23.232 22.6512 23.112 22.6512 23.112H25.3008C25.3008 23.112 25.3728 23.232 25.6272 23.7696C25.7712 23.8128 26.5008 24.0336 27.9456 24.1488C28.512 24.1968 30.0864 23.9856 30.3552 23.7936C30.5952 23.088 30.7152 22.2672 30.7152 22.2672C30.7152 22.2672 30.5616 21.8688 30.456 21.4608C29.6256 22.2768 24.9072 22.4736 24.0912 22.5072C24.0672 22.5072 24.048 22.5216 24.0336 22.5216H24.024C23.9856 22.5216 23.9664 22.5216 23.9664 22.5216C23.9664 22.5216 23.9472 22.5216 23.9088 22.5216H23.8992C23.8848 22.5216 23.8656 22.5072 23.8416 22.5072C23.0256 22.4736 18.3072 22.2864 17.4768 21.4656C17.3904 21.8736 17.2368 22.2672 17.2368 22.2672Z" fill="#BCFFFF"/>
<path id="Vector_8" d="M17.256 22.272C17.256 22.272 17.376 23.088 17.616 23.784C17.88 23.976 19.4544 24.1776 20.016 24.1344C21.456 24.0192 22.1856 23.808 22.3296 23.7648C22.5888 23.232 22.656 23.112 22.656 23.112H25.296C25.296 23.112 25.368 23.232 25.6224 23.7648C25.7664 23.808 26.496 24.024 27.936 24.1392C28.5024 24.1872 30.072 23.9808 30.336 23.7888C30.576 23.0928 30.696 22.2768 30.696 22.2768C30.696 22.2768 30.5424 21.8832 30.4368 21.48C29.6112 22.2912 24.9024 22.4832 24.0912 22.5168C24.0672 22.5168 24.048 22.5312 24.0336 22.5312H24.024C23.9856 22.5312 23.9664 22.5312 23.9664 22.5312C23.9664 22.5312 23.9472 22.5312 23.9088 22.5312H23.8992C23.8848 22.5312 23.8656 22.5168 23.8416 22.5168C23.0256 22.4832 18.3216 22.296 17.496 21.4848C17.4048 21.8832 17.256 22.272 17.256 22.272Z" fill="#BDFFFF"/>
<path id="Vector_9" d="M17.2704 22.2768C17.2704 22.2768 17.3904 23.0832 17.6304 23.7744C17.8944 23.9664 19.464 24.168 20.0256 24.12C21.4656 24.0048 22.1904 23.7936 22.3344 23.7552C22.5888 23.2272 22.6608 23.1072 22.6608 23.1072H25.296C25.296 23.1072 25.368 23.2272 25.6224 23.7552C25.7664 23.7984 26.4912 24.0096 27.9312 24.1248C28.4928 24.1728 30.0624 23.9664 30.3264 23.7744C30.5664 23.0832 30.6864 22.2768 30.6864 22.2768C30.6864 22.2768 30.5328 21.8832 30.4272 21.4896C29.6016 22.2912 24.9072 22.4832 24.096 22.5168C24.0768 22.5168 24.0528 22.5312 24.0384 22.5312H24.0288C23.9904 22.5312 23.976 22.5312 23.976 22.5312C23.976 22.5312 23.9568 22.5312 23.9232 22.5312H23.9136C23.8992 22.5312 23.88 22.5168 23.856 22.5168C23.0448 22.4832 18.3504 22.3008 17.5248 21.4944C17.424 21.8928 17.2704 22.2768 17.2704 22.2768Z" fill="#BEFFFF"/>
<path id="Vector_10" d="M17.2896 22.2816C17.2896 22.2816 17.4096 23.0784 17.6496 23.7648C17.9136 23.952 19.4784 24.1536 20.04 24.1056C21.4752 23.9904 22.2 23.784 22.344 23.7408C22.5984 23.2176 22.6704 23.0976 22.6704 23.0976H25.296C25.296 23.0976 25.368 23.2128 25.6224 23.7408C25.7664 23.784 26.4912 23.9952 27.9264 24.1104C28.488 24.1584 30.0528 23.952 30.3168 23.7648C30.5568 23.0784 30.6768 22.2816 30.6768 22.2816C30.6768 22.2816 30.5232 21.8928 30.4176 21.4992C29.5968 22.296 24.912 22.4832 24.1008 22.5168C24.0816 22.5168 24.0576 22.5312 24.0432 22.5312H24.0336C23.9952 22.5312 23.9808 22.5312 23.9808 22.5312C23.9808 22.5312 23.9616 22.5312 23.928 22.5312H23.9184C23.904 22.5312 23.8848 22.5168 23.8608 22.5168C23.0496 22.4832 18.3696 22.3008 17.544 21.504C17.4384 21.9024 17.2896 22.2816 17.2896 22.2816Z" fill="#BFFFFF"/>
<path id="Vector_11" d="M17.304 22.2912C17.304 22.2912 17.424 23.0832 17.6592 23.76C17.9232 23.9472 19.4832 24.144 20.0448 24.1008C21.4752 23.9856 22.1952 23.784 22.3392 23.7408C22.5936 23.2224 22.6656 23.1072 22.6656 23.1072H25.2864C25.2864 23.1072 25.3584 23.2224 25.6128 23.7408C25.7568 23.7792 26.4816 23.9904 27.9072 24.1056C28.4688 24.1488 30.0288 23.952 30.2928 23.7648C30.5328 23.088 30.648 22.296 30.648 22.296C30.648 22.296 30.4944 21.912 30.3936 21.5232C29.5728 22.3104 24.9024 22.4976 24.096 22.5312C24.0768 22.5312 24.0528 22.5456 24.0384 22.5456H24.0288C23.9904 22.5456 23.976 22.5456 23.976 22.5456C23.976 22.5456 23.9568 22.5456 23.9232 22.5456H23.9136C23.8992 22.5456 23.88 22.5312 23.856 22.5312C23.0496 22.4976 18.3792 22.3152 17.5584 21.528C17.4576 21.912 17.304 22.2912 17.304 22.2912Z" fill="#C0FFFF"/>
<path id="Vector_12" d="M17.3232 22.296C17.3232 22.296 17.4432 23.0784 17.6784 23.7504C17.9424 23.9328 19.4976 24.1296 20.0544 24.0864C21.48 23.976 22.2 23.7696 22.344 23.7312C22.5984 23.2176 22.6704 23.1024 22.6704 23.1024H25.2864C25.2864 23.1024 25.3584 23.2176 25.6128 23.7312C25.7568 23.7696 26.4768 23.9808 27.9024 24.0912C28.4592 24.1344 30.0192 23.9376 30.2784 23.7504C30.5184 23.0784 30.6336 22.296 30.6336 22.296C30.6336 22.296 30.4848 21.9168 30.3792 21.528C29.5632 22.3056 24.9024 22.4928 24.096 22.5264C24.0768 22.5264 24.0528 22.5408 24.0384 22.5408H24.0288C23.9904 22.5408 23.976 22.5408 23.976 22.5408C23.976 22.5408 23.9568 22.5408 23.9232 22.5408H23.9136C23.8992 22.5408 23.88 22.5264 23.856 22.5264C23.0496 22.4928 18.3888 22.3152 17.5728 21.5328C17.472 21.9216 17.3232 22.296 17.3232 22.296Z" fill="#C1FFFF"/>
<path id="Vector_13" d="M17.3376 22.3008C17.3376 22.3008 17.4576 23.0784 17.6928 23.7408C17.9568 23.9232 19.5072 24.12 20.064 24.072C21.4848 23.9616 22.2048 23.76 22.3488 23.7216C22.6032 23.2128 22.6704 23.0976 22.6704 23.0976H25.2768C25.2768 23.0976 25.3488 23.2128 25.5984 23.7216C25.7424 23.76 26.4624 23.9664 27.8832 24.0816C28.44 24.1248 29.9904 23.928 30.2544 23.7456C30.4896 23.0784 30.6096 22.3056 30.6096 22.3056C30.6096 22.3056 30.4608 21.9264 30.3552 21.5472C29.5392 22.32 24.8928 22.5024 24.0864 22.536C24.0672 22.536 24.0432 22.5504 24.0288 22.5504H24.0192C23.9808 22.5504 23.9664 22.5504 23.9664 22.5504C23.9664 22.5504 23.9472 22.5504 23.9136 22.5504H23.904C23.8896 22.5504 23.8704 22.536 23.8464 22.536C23.0448 22.5024 18.3936 22.3248 17.5776 21.552C17.4912 21.9264 17.3376 22.3008 17.3376 22.3008Z" fill="#C2FFFF"/>
<path id="Vector_14" d="M17.3568 22.3056C17.3568 22.3056 17.4768 23.0736 17.712 23.7312C17.9712 23.9136 19.5216 24.1056 20.0784 24.0624C21.4992 23.952 22.2144 23.7552 22.3584 23.712C22.6128 23.208 22.68 23.0976 22.68 23.0976H25.2816C25.2816 23.0976 25.3536 23.2128 25.6032 23.712C25.7472 23.7504 26.4624 23.9568 27.8832 24.0672C28.44 24.1104 29.9856 23.9184 30.2496 23.736C30.4848 23.0784 30.6048 22.3056 30.6048 22.3056C30.6048 22.3056 30.456 21.9312 30.3504 21.552C29.5344 22.3152 24.9024 22.4976 24.1008 22.5312C24.0816 22.5312 24.0576 22.5456 24.0432 22.5456H24.0336C23.9952 22.5456 23.9808 22.5456 23.9808 22.5456C23.9808 22.5456 23.9616 22.5456 23.928 22.5456H23.9184C23.904 22.5456 23.8848 22.5312 23.8608 22.5312C23.0592 22.4976 18.4224 22.3248 17.6112 21.5568C17.5056 21.936 17.3568 22.3056 17.3568 22.3056Z" fill="#C3FFFF"/>
<path id="Vector_15" d="M17.376 22.3104C17.376 22.3104 17.496 23.0688 17.7312 23.7216C17.9904 23.8992 19.536 24.0912 20.0928 24.048C21.5088 23.9376 22.224 23.7408 22.368 23.7024C22.6224 23.2032 22.6896 23.0928 22.6896 23.0928H25.2864C25.2864 23.0928 25.3584 23.2032 25.608 23.7024C25.752 23.7408 26.4672 23.9424 27.8832 24.0528C28.44 24.096 29.9808 23.904 30.2448 23.7264C30.48 23.0736 30.6 22.3104 30.6 22.3104C30.6 22.3104 30.4512 21.9408 30.3456 21.5664C29.5344 22.3248 24.912 22.5024 24.1104 22.536C24.0912 22.536 24.0672 22.5504 24.0528 22.5504H24.0432C24.0048 22.5504 23.9904 22.5504 23.9904 22.5504C23.9904 22.5504 23.9712 22.5504 23.9376 22.5504H23.928C23.9136 22.5504 23.8944 22.536 23.8704 22.536C23.0688 22.5024 18.4464 22.3296 17.6352 21.5712C17.5248 21.9456 17.376 22.3104 17.376 22.3104Z" fill="#C4FFFF"/>
<path id="Vector_16" d="M17.3904 22.3152C17.3904 22.3152 17.5104 23.0688 17.7456 23.712C18.0048 23.8896 19.5456 24.0768 20.0976 24.0336C21.5088 23.928 22.224 23.7312 22.3632 23.6928C22.6128 23.1984 22.6848 23.088 22.6848 23.088H25.272C25.272 23.088 25.3392 23.1984 25.5936 23.6928C25.7376 23.7312 26.448 23.9328 27.8592 24.0384C28.4112 24.0816 29.952 23.8896 30.2112 23.712C30.4464 23.0688 30.5664 22.3104 30.5664 22.3104C30.5664 22.3104 30.4176 21.9456 30.312 21.5712C29.5008 22.32 24.8928 22.4976 24.096 22.5312C24.0768 22.5312 24.0528 22.5456 24.0384 22.5456H24.0288C23.9904 22.5456 23.976 22.5456 23.976 22.5456C23.976 22.5456 23.9568 22.5456 23.9232 22.5456H23.9136C23.8992 22.5456 23.88 22.5312 23.856 22.5312C23.0592 22.4976 18.4464 22.3296 17.64 21.576C17.5392 21.9552 17.3904 22.3152 17.3904 22.3152Z" fill="#C5FFFF"/>
<path id="Vector_17" d="M17.4096 22.32C17.4096 22.32 17.5248 23.064 17.76 23.7024C18.0192 23.88 19.5552 24.0624 20.1072 24.024C21.5136 23.9184 22.2288 23.7216 22.368 23.6832C22.6176 23.1936 22.6896 23.0832 22.6896 23.0832H25.272C25.272 23.0832 25.3392 23.1936 25.5936 23.6832C25.7376 23.7216 26.448 23.9184 27.8544 24.0288C28.4064 24.072 29.9424 23.88 30.2016 23.7072C30.4368 23.0688 30.552 22.32 30.552 22.32C30.552 22.32 30.4032 21.9552 30.2976 21.5904C29.4912 22.3344 24.8928 22.5072 24.096 22.5408C24.0768 22.5408 24.0528 22.5552 24.0432 22.5552H24.0336C23.9952 22.5552 23.9808 22.5552 23.9808 22.5552C23.9808 22.5552 23.9616 22.5552 23.928 22.5552H23.9184C23.904 22.5552 23.8848 22.5408 23.8656 22.5408C23.0688 22.5072 18.4704 22.3392 17.664 21.5952C17.5584 21.9648 17.4096 22.32 17.4096 22.32Z" fill="#C6FFFF"/>
<path id="Vector_18" d="M17.424 22.3248C17.424 22.3248 17.5392 23.064 17.7744 23.6976C18.0336 23.8704 19.5648 24.0576 20.1168 24.0144C21.5232 23.9088 22.2288 23.7168 22.3728 23.6784C22.6224 23.1936 22.6944 23.088 22.6944 23.088H25.2672C25.2672 23.088 25.3344 23.1984 25.5888 23.6784C25.7328 23.7168 26.4384 23.9136 27.8448 24.0192C28.3968 24.0624 29.928 23.8752 30.1872 23.7024C30.4224 23.0688 30.5376 22.3296 30.5376 22.3296C30.5376 22.3296 30.3888 21.9696 30.288 21.6048C29.4816 22.3392 24.8976 22.512 24.1008 22.5456C24.0816 22.5456 24.0576 22.56 24.048 22.56H24.0384C24 22.56 23.9856 22.56 23.9856 22.56C23.9856 22.56 23.9664 22.56 23.9328 22.56H23.9232C23.9088 22.56 23.8896 22.5456 23.8704 22.5456C23.0784 22.512 18.4896 22.344 17.6832 21.6096C17.5728 21.9744 17.424 22.3248 17.424 22.3248Z" fill="#C7FFFF"/>
<path id="Vector_19" d="M17.4432 22.3296C17.4432 22.3296 17.5584 23.0592 17.7936 23.688C18.0528 23.8608 19.5792 24.0432 20.1264 24C21.528 23.8944 22.2336 23.7072 22.3776 23.6688C22.6272 23.1888 22.6944 23.0832 22.6944 23.0832H25.2624C25.2624 23.0832 25.3296 23.1888 25.5792 23.6688C25.7184 23.7072 26.4288 23.8992 27.8304 24.0048C28.3776 24.048 29.9088 23.8608 30.1632 23.688C30.3984 23.064 30.5136 22.3296 30.5136 22.3296C30.5136 22.3296 30.3648 21.9744 30.264 21.6144C29.4624 22.344 24.888 22.512 24.096 22.5456C24.0768 22.5456 24.0528 22.56 24.0432 22.56H24.0336C23.9952 22.56 23.9808 22.56 23.9808 22.56C23.9808 22.56 23.9616 22.56 23.928 22.56H23.9184C23.904 22.56 23.8848 22.5456 23.8656 22.5456C23.0736 22.512 18.4992 22.3488 17.6976 21.6192C17.592 21.984 17.4432 22.3296 17.4432 22.3296Z" fill="#C8FFFF"/>
<path id="Vector_20" d="M17.4576 22.3344C17.4576 22.3344 17.5728 23.0592 17.808 23.6784C18.0672 23.8464 19.5888 24.0288 20.136 23.9904C21.5328 23.8848 22.2384 23.6976 22.3776 23.664C22.6272 23.1888 22.6944 23.0832 22.6944 23.0832H25.2576C25.2576 23.0832 25.3248 23.1888 25.5744 23.664C25.7136 23.7024 26.4192 23.8944 27.816 23.9952C28.3632 24.0384 29.8896 23.8512 30.144 23.6832C30.3792 23.064 30.4944 22.3392 30.4944 22.3392C30.4944 22.3392 30.3456 21.9888 30.2448 21.6336C29.4432 22.3536 24.8784 22.5216 24.0912 22.5552C24.072 22.5552 24.0528 22.5696 24.0384 22.5696H24.0288C23.9904 22.5696 23.976 22.5696 23.976 22.5696C23.976 22.5696 23.9568 22.5696 23.9232 22.5696H23.9136C23.8992 22.5696 23.88 22.5552 23.8608 22.5552C23.0736 22.5216 18.5088 22.3584 17.7072 21.6384C17.6064 21.9888 17.4576 22.3344 17.4576 22.3344Z" fill="#C9FFFF"/>
<path id="Vector_21" d="M17.4768 22.344C17.4768 22.344 17.592 23.0592 17.8272 23.6736C18.0816 23.8416 19.6032 24.0192 20.1504 23.9808C21.5424 23.88 22.248 23.6928 22.3872 23.6544C22.6368 23.184 22.704 23.0784 22.704 23.0784H25.2576C25.2576 23.0784 25.3248 23.184 25.5744 23.6544C25.7136 23.6928 26.4192 23.88 27.8112 23.9856C28.3584 24.0288 29.8752 23.8464 30.1344 23.6784C30.3648 23.064 30.4848 22.3488 30.4848 22.3488C30.4848 22.3488 30.336 21.9984 30.2352 21.648C29.4384 22.3584 24.8832 22.5264 24.096 22.56C24.0768 22.56 24.0576 22.5744 24.0432 22.5744H24.0336C24 22.5744 23.9808 22.5744 23.9808 22.5744C23.9808 22.5744 23.9616 22.5744 23.928 22.5744H23.9184C23.904 22.5744 23.8848 22.56 23.8656 22.56C23.0784 22.5312 18.528 22.368 17.7264 21.6528C17.6256 21.9984 17.4768 22.344 17.4768 22.344Z" fill="#CAFFFF"/>
<path id="Vector_22" d="M17.496 22.3488C17.496 22.3488 17.6112 23.0544 17.8416 23.664C18.096 23.832 19.6128 24.0096 20.16 23.9664C21.552 23.8656 22.2528 23.6832 22.392 23.6448C22.6416 23.1792 22.7088 23.0784 22.7088 23.0784H25.2576C25.2576 23.0784 25.3248 23.184 25.5744 23.6448C25.7136 23.6832 26.4144 23.8704 27.8064 23.9712C28.3488 24.0096 29.8656 23.832 30.1248 23.664C30.3552 23.0592 30.4704 22.3488 30.4704 22.3488C30.4704 22.3488 30.3216 22.0032 30.2208 21.6576C29.424 22.3632 24.8832 22.5264 24.1008 22.56C24.0816 22.56 24.0624 22.5744 24.048 22.5744H24.0384C24.0048 22.5744 23.9856 22.5744 23.9856 22.5744C23.9856 22.5744 23.9664 22.5744 23.9328 22.5744H23.9232C23.9088 22.5744 23.8896 22.56 23.8704 22.56C23.0832 22.5312 18.5472 22.368 17.7504 21.6624C17.64 22.008 17.496 22.3488 17.496 22.3488Z" fill="#CBFFFF"/>
<path id="Vector_23" d="M17.5104 22.3536C17.5104 22.3536 17.6256 23.0544 17.856 23.6544C18.1104 23.8176 19.6224 23.9952 20.1648 23.9568C21.552 23.856 22.2528 23.6736 22.392 23.64C22.6368 23.1792 22.7088 23.0784 22.7088 23.0784H25.248C25.248 23.0784 25.3152 23.1792 25.5648 23.64C25.704 23.6784 26.4048 23.8608 27.792 23.9616C28.3344 24 29.8464 23.8224 30.1008 23.6592C30.3312 23.0592 30.4464 22.3584 30.4464 22.3584C30.4464 22.3584 30.2976 22.0176 30.1968 21.672C29.4 22.368 24.8736 22.5312 24.0912 22.5648C24.072 22.5648 24.0528 22.5792 24.0384 22.5792H24.0288C23.9952 22.5792 23.976 22.5792 23.976 22.5792C23.976 22.5792 23.9568 22.5792 23.9232 22.5792H23.9136C23.8992 22.5792 23.88 22.5648 23.8608 22.5648C23.0784 22.536 18.552 22.3776 17.7552 21.6768C17.6592 22.0176 17.5104 22.3536 17.5104 22.3536Z" fill="#CCFFFF"/>
<path id="Vector_24" d="M17.5296 22.3584C17.5296 22.3584 17.6448 23.0496 17.8752 23.6448C18.1296 23.808 19.6368 23.9808 20.1792 23.9424C21.5616 23.8416 22.2576 23.664 22.3968 23.6256C22.6416 23.1696 22.7136 23.0688 22.7136 23.0688H25.248C25.248 23.0688 25.3152 23.1696 25.5648 23.6256C25.704 23.6592 26.4 23.8464 27.7824 23.9472C28.3248 23.9856 29.832 23.8128 30.0864 23.6496C30.3168 23.0544 30.432 22.3632 30.432 22.3632C30.432 22.3632 30.288 22.0272 30.1824 21.6864C29.3904 22.3776 24.8736 22.5408 24.096 22.5696C24.0768 22.5696 24.0576 22.584 24.0432 22.584H24.0336C24 22.584 23.9808 22.584 23.9808 22.584C23.9808 22.584 23.9616 22.584 23.928 22.584H23.9184C23.904 22.584 23.8848 22.5696 23.8656 22.5696C23.0832 22.5408 18.5712 22.3824 17.7792 21.6912C17.6736 22.0272 17.5296 22.3584 17.5296 22.3584Z" fill="#CDFFFF"/>
<path id="Vector_25" d="M17.544 22.3632C17.544 22.3632 17.6592 23.0496 17.8896 23.6352C18.144 23.7984 19.6464 23.9664 20.1888 23.928C21.5664 23.832 22.2624 23.6544 22.4016 23.616C22.6464 23.1648 22.7136 23.064 22.7136 23.064H25.2432C25.2432 23.064 25.3104 23.1648 25.5552 23.616C25.6944 23.6496 26.3904 23.832 27.768 23.9328C28.3104 23.9712 29.8128 23.7984 30.0672 23.6352C30.2976 23.0496 30.4128 22.3632 30.4128 22.3632C30.4128 22.3632 30.2688 22.032 30.168 21.6912C29.376 22.3728 24.8736 22.536 24.096 22.5648C24.0768 22.5648 24.0576 22.5792 24.0432 22.5792H24.0336C24 22.5792 23.9808 22.5792 23.9808 22.5792C23.9808 22.5792 23.9616 22.5792 23.928 22.5792H23.9184C23.904 22.5792 23.8848 22.5696 23.8656 22.5648C23.088 22.536 18.5856 22.3776 17.7936 21.696C17.6928 22.0368 17.544 22.3632 17.544 22.3632Z" fill="#CEFFFF"/>
<path id="Vector_26" d="M17.5632 22.368C17.5632 22.368 17.6784 23.0448 17.9088 23.6256C18.1632 23.784 19.6608 23.9568 20.1984 23.9136C21.5712 23.8176 22.2672 23.64 22.4064 23.6064C22.6512 23.16 22.7184 23.064 22.7184 23.064H25.2384C25.2384 23.064 25.3056 23.1648 25.5504 23.6064C25.6896 23.64 26.3856 23.8224 27.7584 23.9184C28.296 23.9568 29.7984 23.784 30.048 23.6256C30.2784 23.0448 30.3936 22.368 30.3936 22.368C30.3936 22.368 30.2496 22.0368 30.1488 21.7056C29.3616 22.3824 24.8688 22.5408 24.0912 22.5696C24.072 22.5696 24.0528 22.584 24.0384 22.584H24.0288C23.9952 22.584 23.976 22.584 23.976 22.584C23.976 22.584 23.9568 22.584 23.9232 22.584H23.9136C23.8992 22.584 23.88 22.5744 23.8608 22.5696C23.0832 22.5408 18.5952 22.3872 17.8032 21.7104C17.7072 22.0464 17.5632 22.368 17.5632 22.368Z" fill="#CFFFFF"/>
<path id="Vector_27" d="M17.5824 22.3728C17.5824 22.3728 17.6976 23.0448 17.9232 23.616C18.1776 23.7744 19.6704 23.9424 20.208 23.904C21.5808 23.808 22.272 23.6352 22.4112 23.6016C22.656 23.1648 22.7232 23.064 22.7232 23.064H25.2384C25.2384 23.064 25.3056 23.1648 25.5504 23.6016C25.6896 23.6352 26.3808 23.8128 27.7536 23.9088C28.2912 23.9472 29.7888 23.7792 30.0384 23.6208C30.2688 23.0448 30.3792 22.3776 30.3792 22.3776C30.3792 22.3776 30.2352 22.0512 30.1344 21.72C29.3472 22.3872 24.8688 22.5456 24.096 22.5744C24.0768 22.5744 24.0576 22.5888 24.0432 22.5888H24.0336C24 22.5888 23.9808 22.5888 23.9808 22.5888C23.9808 22.5888 23.9616 22.5888 23.928 22.5888H23.9184C23.904 22.5888 23.8848 22.5792 23.8656 22.5744C23.0928 22.5456 18.6144 22.392 17.8272 21.7248C17.7264 22.056 17.5824 22.3728 17.5824 22.3728Z" fill="#D0FFFF"/>
<path id="Vector_28" d="M17.5968 22.3776C17.5968 22.3776 17.712 23.04 17.9376 23.6064C18.1872 23.7648 19.68 23.928 20.2176 23.8896C21.5856 23.7936 22.2768 23.6208 22.416 23.5872C22.6608 23.1552 22.728 23.0544 22.728 23.0544H25.2336C25.2336 23.0544 25.3008 23.1504 25.5456 23.5872C25.6848 23.6208 26.376 23.7984 27.744 23.8944C28.2816 23.9328 29.7696 23.7648 30.024 23.6064C30.2496 23.04 30.3648 22.3776 30.3648 22.3776C30.3648 22.3776 30.2208 22.056 30.12 21.7296C29.3376 22.3872 24.8688 22.5456 24.096 22.5744C24.0768 22.5744 24.0576 22.584 24.0432 22.584H24.0336C24 22.584 23.9808 22.584 23.9808 22.584C23.9808 22.584 23.9616 22.584 23.928 22.584H23.9184C23.904 22.584 23.8848 22.5744 23.8656 22.5696C23.0928 22.5408 18.624 22.392 17.8416 21.7296C17.7408 22.0608 17.5968 22.3776 17.5968 22.3776Z" fill="#D1FFFF"/>
<path id="Vector_29" d="M17.616 22.3824C17.616 22.3824 17.7312 23.0352 17.9568 23.5968C18.2064 23.7504 19.6944 23.9136 20.232 23.8752C21.5952 23.784 22.2864 23.6112 22.4208 23.5776C22.6656 23.1504 22.7328 23.0544 22.7328 23.0544H25.2336C25.2336 23.0544 25.3008 23.1504 25.5456 23.5776C25.6848 23.6112 26.3712 23.784 27.7344 23.88C28.2672 23.9184 29.7552 23.7504 30.0096 23.5968C30.2352 23.0352 30.3504 22.3776 30.3504 22.3776C30.3504 22.3776 30.2064 22.0608 30.1056 21.7344C29.3232 22.3872 24.8688 22.5408 24.096 22.5696C24.0768 22.5696 24.0576 22.5792 24.0432 22.5792H24.0336C24 22.5792 23.9808 22.5792 23.9808 22.5792C23.9808 22.5792 23.9616 22.5792 23.928 22.5792H23.9184C23.904 22.5792 23.8848 22.5696 23.8656 22.5648C23.0928 22.536 18.6384 22.3872 17.856 21.7344C17.76 22.0704 17.616 22.3824 17.616 22.3824Z" fill="#D2FFFF"/>
<path id="Vector_30" d="M17.6304 22.3872C17.6304 22.3872 17.7456 23.0352 17.9712 23.5872C18.2208 23.7408 19.704 23.8992 20.2368 23.8656C21.5952 23.7744 22.2864 23.6064 22.4208 23.5728C22.6656 23.1504 22.728 23.0544 22.728 23.0544H25.224C25.224 23.0544 25.2912 23.1504 25.5312 23.5728C25.6704 23.6064 26.3568 23.7792 27.7152 23.8704C28.248 23.9088 29.7312 23.7456 29.9808 23.592C30.2064 23.0352 30.3216 22.3872 30.3216 22.3872C30.3216 22.3872 30.1776 22.0704 30.0768 21.7536C29.2992 22.3968 24.8544 22.5504 24.0864 22.5792C24.0672 22.5792 24.048 22.5888 24.0336 22.5888H24.024C23.9904 22.5888 23.9712 22.5888 23.9712 22.5888C23.9712 22.5888 23.952 22.5888 23.9184 22.5888H23.9088C23.8944 22.5888 23.8752 22.5792 23.856 22.5744C23.088 22.5456 18.6432 22.4016 17.8656 21.7536C17.7744 22.08 17.6304 22.3872 17.6304 22.3872Z" fill="#D3FFFF"/>
<path id="Vector_31" d="M17.6496 22.3968C17.6496 22.3968 17.7648 23.0352 17.9904 23.5824C18.24 23.7312 19.7184 23.8944 20.2512 23.856C21.6096 23.7648 22.2912 23.5968 22.4304 23.5632C22.6704 23.1456 22.7376 23.0496 22.7376 23.0496H25.224C25.224 23.0496 25.2912 23.1456 25.5312 23.5632C25.6656 23.5968 26.352 23.7648 27.7104 23.856C28.2432 23.8944 29.7216 23.7312 29.9712 23.5776C30.1968 23.0304 30.312 22.3872 30.312 22.3872C30.312 22.3872 30.168 22.0752 30.0672 21.7632C29.2896 22.4016 24.8592 22.5504 24.0912 22.5792C24.072 22.5792 24.0528 22.5888 24.0384 22.5888H24.0288C23.9952 22.5888 23.976 22.5888 23.976 22.5888C23.976 22.5888 23.9568 22.5888 23.9232 22.5888H23.9136C23.8992 22.5888 23.88 22.5792 23.8608 22.5792C23.0928 22.5504 18.6624 22.4064 17.8848 21.768C17.7936 22.0896 17.6496 22.3968 17.6496 22.3968Z" fill="#D4FFFF"/>
<path id="Vector_32" d="M17.664 22.4016C17.664 22.4016 17.7744 23.0352 18 23.5728C18.2496 23.7216 19.7232 23.88 20.256 23.8416C21.6096 23.7504 22.2912 23.5872 22.4304 23.5536C22.6704 23.1408 22.7376 23.0448 22.7376 23.0448H25.2192C25.2192 23.0448 25.2864 23.136 25.5264 23.5536C25.6608 23.5872 26.3472 23.7552 27.7008 23.8464C28.2288 23.8848 29.7072 23.7216 29.9568 23.5728C30.1824 23.0304 30.2928 22.3968 30.2928 22.3968C30.2928 22.3968 30.1488 22.0896 30.048 21.7776C29.2704 22.4064 24.8544 22.5552 24.0912 22.584C24.072 22.584 24.0528 22.5936 24.0384 22.5936H24.0288C23.9952 22.5936 23.976 22.5936 23.976 22.5936C23.976 22.5936 23.9568 22.5936 23.9232 22.5936H23.9136C23.8992 22.5936 23.88 22.584 23.8608 22.584C23.0976 22.5552 18.6768 22.4112 17.904 21.7824C17.808 22.0992 17.664 22.4016 17.664 22.4016Z" fill="#D5FFFF"/>
<path id="Vector_33" d="M17.6832 22.4064C17.6832 22.4064 17.7936 23.0304 18.0192 23.568C18.2688 23.7168 19.7376 23.8704 20.2656 23.8368C21.6144 23.7456 22.296 23.5872 22.4304 23.5536C22.6704 23.1456 22.7376 23.0544 22.7376 23.0544H25.2096C25.2096 23.0544 25.2768 23.1456 25.5168 23.5536C25.6512 23.5872 26.3328 23.7504 27.6816 23.8416C28.2096 23.8752 29.6832 23.7168 29.928 23.5728C30.1536 23.04 30.264 22.4112 30.264 22.4112C30.264 22.4112 30.12 22.1088 30.024 21.8016C29.2512 22.4256 24.8448 22.5696 24.0816 22.5984C24.0624 22.5984 24.0432 22.608 24.0288 22.608H24.0192C23.9856 22.608 23.9664 22.608 23.9664 22.608C23.9664 22.608 23.9472 22.608 23.9136 22.608H23.904C23.8896 22.608 23.8704 22.5984 23.8512 22.5984C23.088 22.5696 18.6816 22.4304 17.9088 21.8064C17.8272 22.1088 17.6832 22.4064 17.6832 22.4064Z" fill="#D6FFFF"/>
<path id="Vector_34" d="M17.7024 22.4112C17.7024 22.4112 17.8128 23.0256 18.0384 23.5584C18.288 23.7024 19.752 23.856 20.28 23.8224C21.624 23.736 22.3056 23.5728 22.44 23.544C22.68 23.1408 22.7472 23.0496 22.7472 23.0496H25.2144C25.2144 23.0496 25.2816 23.1408 25.5216 23.544C25.656 23.5776 26.3376 23.7408 27.6816 23.8272C28.2096 23.8608 29.6784 23.7072 29.9232 23.5584C30.1488 23.0304 30.2592 22.4112 30.2592 22.4112C30.2592 22.4112 30.1152 22.1088 30.0192 21.8064C29.2464 22.4208 24.8544 22.5648 24.0912 22.5936C24.072 22.5936 24.0528 22.6032 24.0384 22.6032H24.0288C23.9952 22.6032 23.976 22.6032 23.976 22.6032C23.976 22.6032 23.9568 22.6032 23.9232 22.6032H23.9136C23.8992 22.6032 23.88 22.5936 23.8608 22.5936C23.1024 22.5648 18.7056 22.4256 17.9328 21.8112C17.8416 22.1184 17.7024 22.4112 17.7024 22.4112Z" fill="#D7FFFF"/>
<path id="Vector_35" d="M17.7168 22.416C17.7168 22.416 17.8272 23.0256 18.0528 23.5488C18.2976 23.6928 19.7616 23.8464 20.2896 23.808C21.6336 23.7216 22.3104 23.5632 22.4448 23.5296C22.6848 23.1312 22.752 23.04 22.752 23.04H25.2144C25.2144 23.04 25.2816 23.1312 25.5216 23.5296C25.656 23.5632 26.3328 23.7216 27.6768 23.8128C28.2 23.8464 29.664 23.6928 29.9136 23.5488C30.1392 23.0256 30.2496 22.416 30.2496 22.416C30.2496 22.416 30.1056 22.1184 30.0096 21.8208C29.2416 22.4256 24.8592 22.5696 24.1008 22.5984C24.0816 22.5984 24.0624 22.608 24.048 22.608H24.0384C24.0048 22.608 23.9856 22.608 23.9856 22.608C23.9856 22.608 23.9712 22.608 23.9328 22.608H23.9232C23.9088 22.608 23.8896 22.5984 23.8704 22.5984C23.112 22.5744 18.7296 22.4352 17.9616 21.8256C17.8608 22.1232 17.7168 22.416 17.7168 22.416Z" fill="#D8FFFF"/>
<path id="Vector_36" d="M17.736 22.4208C17.736 22.4208 17.8464 23.0208 18.072 23.5392C18.3168 23.6832 19.776 23.832 20.304 23.7984C21.6432 23.712 22.32 23.5584 22.4544 23.5248C22.6944 23.1312 22.7568 23.04 22.7568 23.04H25.2096C25.2096 23.04 25.2768 23.1264 25.512 23.5248C25.6464 23.5536 26.3232 23.7168 27.6624 23.8032C28.1856 23.8368 29.6448 23.6832 29.8944 23.544C30.1152 23.0304 30.2304 22.4256 30.2304 22.4256C30.2304 22.4256 30.0864 22.1328 29.9904 21.8352C29.2224 22.4352 24.8544 22.5744 24.096 22.6032C24.0768 22.6032 24.0576 22.6128 24.0432 22.6128H24.0336C24 22.6128 23.9808 22.6128 23.9808 22.6128C23.9808 22.6128 23.9664 22.6128 23.928 22.6128H23.9184C23.904 22.6128 23.8848 22.6032 23.8656 22.6032C23.112 22.5792 18.7392 22.44 17.9712 21.84C17.8752 22.1328 17.736 22.4208 17.736 22.4208Z" fill="#D9FFFF"/>
<path id="Vector_37" d="M17.7504 22.4256C17.7504 22.4256 17.8608 23.0208 18.0864 23.5296C18.3312 23.6688 19.7856 23.8176 20.3088 23.784C21.6432 23.6976 22.3152 23.544 22.4496 23.5152C22.6896 23.1264 22.752 23.04 22.752 23.04H25.2C25.2 23.04 25.2672 23.1264 25.5024 23.5152C25.6368 23.544 26.3088 23.7024 27.6432 23.7888C28.1664 23.8224 29.6208 23.6736 29.8656 23.5344C30.0864 23.0256 30.2016 22.4304 30.2016 22.4304C30.2016 22.4304 30.0624 22.1424 29.9616 21.8496C29.1984 22.44 24.84 22.5792 24.0864 22.608C24.0672 22.608 24.048 22.6176 24.0336 22.6176H24.024C23.9904 22.6176 23.9712 22.6176 23.9712 22.6176C23.9712 22.6176 23.9568 22.6176 23.9184 22.6176H23.9088C23.8944 22.6176 23.8752 22.608 23.856 22.608C23.1024 22.584 18.744 22.4448 17.9808 21.8544C17.8944 22.1424 17.7504 22.4256 17.7504 22.4256Z" fill="#DAFFFF"/>
<path id="Vector_38" d="M17.7696 22.4304C17.7696 22.4304 17.88 23.016 18.1008 23.52C18.3456 23.6592 19.8 23.8032 20.3184 23.7696C21.648 23.688 22.32 23.5344 22.4544 23.5008C22.6896 23.1168 22.7568 23.0304 22.7568 23.0304H25.2C25.2 23.0304 25.2672 23.1168 25.5024 23.5008C25.6368 23.5296 26.3088 23.688 27.6384 23.7696C28.1616 23.8032 29.6112 23.6544 29.856 23.5152C30.0768 23.0112 30.1872 22.4256 30.1872 22.4256C30.1872 22.4256 30.048 22.1424 29.9472 21.8496C29.184 22.4352 24.84 22.5696 24.0864 22.5984C24.0672 22.5984 24.048 22.608 24.0336 22.608H24.024C23.9904 22.608 23.9712 22.608 23.9712 22.608C23.9712 22.608 23.9568 22.608 23.9184 22.608H23.9088C23.8944 22.608 23.8752 22.5984 23.856 22.5984C23.1024 22.5744 18.7584 22.44 17.9952 21.8544C17.9088 22.152 17.7696 22.4304 17.7696 22.4304Z" fill="#DBFFFF"/>
<path id="Vector_39" d="M17.784 22.4352C17.784 22.4352 17.8944 23.016 18.1152 23.5104C18.36 23.6448 19.8096 23.7936 20.328 23.76C21.6528 23.6784 22.3248 23.5248 22.4592 23.496C22.6944 23.1168 22.7616 23.0304 22.7616 23.0304H25.1952C25.1952 23.0304 25.2624 23.1168 25.4976 23.496C25.632 23.5248 26.304 23.6784 27.6288 23.7648C28.1472 23.7984 29.5968 23.6496 29.8416 23.5152C30.0624 23.0208 30.1728 22.44 30.1728 22.44C30.1728 22.44 30.0336 22.1568 29.9328 21.8736C29.1696 22.4496 24.8352 22.584 24.0864 22.6128C24.0672 22.6128 24.048 22.6224 24.0336 22.6224H24.024C23.9904 22.6224 23.9712 22.6224 23.9712 22.6224C23.9712 22.6224 23.9568 22.6224 23.9184 22.6224H23.9088C23.8944 22.6224 23.8752 22.6128 23.856 22.6128C23.1072 22.5888 18.7728 22.4544 18.0096 21.8784C17.928 22.1616 17.784 22.4352 17.784 22.4352Z" fill="#DBFFFF"/>
<path id="Vector_40" d="M17.8032 22.4448C17.8032 22.4448 17.9136 23.016 18.1344 23.5056C18.3792 23.64 19.824 23.784 20.3424 23.7504C21.6672 23.6688 22.3344 23.52 22.4688 23.4912C22.704 23.1168 22.7712 23.0304 22.7712 23.0304H25.2C25.2 23.0304 25.2672 23.1168 25.5024 23.4912C25.6368 23.52 26.304 23.6736 27.6288 23.7552C28.1472 23.7888 29.592 23.6448 29.8368 23.5104C30.0576 23.0208 30.168 22.4496 30.168 22.4496C30.168 22.4496 30.0288 22.1712 29.9328 21.888C29.1744 22.4592 24.8496 22.5888 24.1056 22.6176C24.0864 22.6176 24.0672 22.6272 24.0528 22.6272H24.0432C24.0096 22.6272 23.9904 22.6272 23.9904 22.6272C23.9904 22.6272 23.976 22.6272 23.9376 22.6272H23.928C23.9136 22.6272 23.8944 22.6176 23.8752 22.6176C23.1264 22.5936 18.8064 22.464 18.048 21.8928C17.9424 22.1712 17.8032 22.4448 17.8032 22.4448Z" fill="#DCFFFF"/>
<path id="Vector_41" d="M17.8224 22.4496C17.8224 22.4496 17.9328 23.0112 18.1536 23.496C18.3984 23.6304 19.8384 23.7696 20.352 23.736C21.672 23.6544 22.3392 23.5104 22.4736 23.4816C22.7088 23.112 22.776 23.0304 22.776 23.0304H25.1952C25.1952 23.0304 25.2624 23.112 25.4976 23.4816C25.632 23.5104 26.2992 23.6592 27.6192 23.7408C28.1376 23.7744 29.5776 23.6304 29.8176 23.496C30.0384 23.0112 30.1488 22.4496 30.1488 22.4496C30.1488 22.4496 30.0096 22.176 29.9136 21.8976C29.1552 22.4592 24.8448 22.5936 24.1008 22.6176C24.0816 22.6176 24.0624 22.6272 24.048 22.6272H24.0384C24.0048 22.6272 23.9856 22.6272 23.9856 22.6272C23.9856 22.6272 23.9712 22.6272 23.9328 22.6272H23.9232C23.9088 22.6272 23.8896 22.6176 23.8704 22.6176C23.1264 22.5936 18.816 22.464 18.0576 21.9024C17.9616 22.1808 17.8224 22.4496 17.8224 22.4496Z" fill="#DDFFFF"/>
<path id="Vector_42" d="M17.8368 22.4544C17.8368 22.4544 17.9472 23.0112 18.168 23.4864C18.408 23.616 19.848 23.7552 20.3616 23.7264C21.6768 23.6448 22.344 23.5008 22.4736 23.472C22.7088 23.1072 22.7712 23.0256 22.7712 23.0256H25.1856C25.1856 23.0256 25.248 23.1072 25.4832 23.472C25.6176 23.5008 26.28 23.6496 27.5952 23.7264C28.1088 23.76 29.544 23.616 29.7888 23.4864C30.0096 23.0112 30.12 22.4544 30.12 22.4544C30.12 22.4544 29.9808 22.1856 29.8848 21.912C29.1312 22.464 24.8304 22.5984 24.0864 22.6224C24.0672 22.6224 24.048 22.632 24.0336 22.632H24.024C23.9904 22.632 23.9712 22.632 23.9712 22.632C23.9712 22.632 23.9568 22.632 23.9184 22.632H23.9088C23.8944 22.632 23.8752 22.6224 23.856 22.6224C23.112 22.5984 18.816 22.4736 18.0576 21.9168C17.976 22.1856 17.8368 22.4544 17.8368 22.4544Z" fill="#DEFFFF"/>
<path id="Vector_43" d="M17.856 22.4592C17.856 22.4592 17.9664 23.0064 18.1824 23.4768C18.4224 23.6064 19.8576 23.7456 20.3712 23.712C21.6816 23.6352 22.3488 23.4912 22.4784 23.4624C22.7136 23.1024 22.776 23.0208 22.776 23.0208H25.1808C25.1808 23.0208 25.2432 23.1024 25.4784 23.4624C25.6128 23.4912 26.2752 23.6352 27.5856 23.7168C28.0992 23.7504 29.5296 23.6112 29.7744 23.4816C29.9952 23.0112 30.1008 22.464 30.1008 22.464C30.1008 22.464 29.9616 22.1952 29.8656 21.9264C29.112 22.4736 24.8256 22.6032 24.0864 22.6272C24.0672 22.6272 24.048 22.6368 24.0336 22.6368H24.024C23.9904 22.6368 23.976 22.6368 23.976 22.6368C23.976 22.6368 23.9616 22.6368 23.928 22.6368H23.9184C23.904 22.6368 23.8848 22.6272 23.8656 22.6272C23.1264 22.6032 18.84 22.4784 18.0864 21.9312C17.9952 22.1952 17.856 22.4592 17.856 22.4592Z" fill="#DFFFFF"/>
<path id="Vector_44" d="M17.8704 22.464C17.8704 22.464 17.9808 23.0064 18.1968 23.4672C18.4368 23.5968 19.8672 23.7312 20.376 23.6976C21.6864 23.6208 22.344 23.4816 22.4784 23.4528C22.7136 23.0976 22.776 23.0208 22.776 23.0208H25.176C25.176 23.0208 25.2384 23.1024 25.4736 23.4528C25.6032 23.4816 26.2656 23.6256 27.576 23.7024C28.0896 23.7312 29.5152 23.5968 29.7552 23.4672C29.9712 23.0016 30.0816 22.4592 30.0816 22.4592C30.0816 22.4592 29.9424 22.1952 29.8464 21.9312C29.0976 22.4688 24.8208 22.5984 24.0816 22.6224C24.0624 22.6224 24.0432 22.632 24.0288 22.632H24.0192C23.9856 22.632 23.9712 22.632 23.9712 22.632C23.9712 22.632 23.9568 22.632 23.9232 22.632H23.9136C23.8992 22.632 23.88 22.6224 23.8608 22.6224C23.1216 22.5984 18.8448 22.4736 18.096 21.936C18.0096 22.2048 17.8704 22.464 17.8704 22.464Z" fill="#E0FFFF"/>
<path id="Vector_45" d="M17.8896 22.4688C17.8896 22.4688 18 23.0016 18.216 23.4576C18.456 23.5824 19.8816 23.7168 20.3904 23.688C21.696 23.6112 22.3536 23.472 22.488 23.448C22.7184 23.0976 22.7856 23.0208 22.7856 23.0208H25.176C25.176 23.0208 25.2384 23.0976 25.4736 23.448C25.6032 23.4768 26.2656 23.616 27.5712 23.6928C28.08 23.7216 29.5056 23.5872 29.7456 23.4624C29.9616 23.0064 30.072 22.4688 30.072 22.4688C30.072 22.4688 29.9328 22.2096 29.8368 21.9456C29.088 22.4784 24.8256 22.6032 24.0912 22.6272C24.072 22.6272 24.0528 22.6368 24.0384 22.6368H24.0288C23.9952 22.6368 23.9808 22.6368 23.9808 22.6368C23.9808 22.6368 23.9664 22.6368 23.9328 22.6368H23.9232C23.9088 22.6368 23.8896 22.6272 23.8704 22.6272C23.1312 22.6032 18.8688 22.4832 18.1248 21.9504C18.0288 22.2144 17.8896 22.4688 17.8896 22.4688Z" fill="#E1FFFF"/>
<path id="Vector_46" d="M17.9088 22.4736C17.9088 22.4736 18.0192 23.0016 18.2352 23.448C18.4752 23.5728 19.896 23.7024 20.4048 23.6736C21.7056 23.5968 22.3632 23.4624 22.4928 23.4336C22.7232 23.088 22.7904 23.0112 22.7904 23.0112H25.176C25.176 23.0112 25.2384 23.088 25.4736 23.4336C25.6032 23.4624 26.2608 23.6016 27.5616 23.6784C28.0704 23.7072 29.4912 23.5728 29.7312 23.4528C29.9472 23.0016 30.0576 22.4736 30.0576 22.4736C30.0576 22.4736 29.9184 22.2192 29.8224 21.96C29.0784 22.4832 24.8256 22.608 24.0912 22.632C24.072 22.632 24.0528 22.6416 24.0384 22.6416H24.0288C23.9952 22.6416 23.9808 22.6416 23.9808 22.6416C23.9808 22.6416 23.9664 22.6416 23.9328 22.6416H23.9232C23.9088 22.6416 23.8896 22.632 23.8704 22.632C23.136 22.608 18.8832 22.488 18.1392 21.9648C18.0432 22.224 17.9088 22.4736 17.9088 22.4736Z" fill="#E2FFFF"/>
<path id="Vector_47" d="M17.9232 22.4784C17.9232 22.4784 18.0336 22.9968 18.2496 23.4432C18.4896 23.5632 19.9056 23.6928 20.4144 23.664C21.7104 23.592 22.368 23.4576 22.4976 23.4288C22.728 23.088 22.7952 23.0112 22.7952 23.0112H25.176C25.176 23.0112 25.2384 23.088 25.4736 23.4288C25.6032 23.4576 26.2608 23.592 27.5568 23.6688C28.0656 23.6976 29.4816 23.568 29.7216 23.4432C29.9376 22.9968 30.048 22.4784 30.048 22.4784C30.048 22.4784 29.9088 22.224 29.8176 21.9696C29.0736 22.488 24.8352 22.608 24.1008 22.632C24.0816 22.632 24.0624 22.6416 24.048 22.6416H24.0384C24.0048 22.6416 23.9904 22.6416 23.9904 22.6416C23.9904 22.6416 23.976 22.6416 23.9424 22.6416H23.9328C23.9184 22.6416 23.8992 22.632 23.88 22.632C23.1456 22.608 18.9072 22.4928 18.1632 21.9744C18.0624 22.2336 17.9232 22.4784 17.9232 22.4784Z" fill="#E3FFFF"/>
<path id="Vector_48" d="M17.9424 22.4832C17.9424 22.4832 18.048 22.992 18.264 23.4336C18.504 23.5536 19.9152 23.6832 20.4192 23.6544C21.7152 23.5824 22.368 23.448 22.4976 23.424C22.728 23.088 22.7904 23.016 22.7904 23.016H25.1616C25.1616 23.016 25.224 23.0928 25.4544 23.424C25.584 23.448 26.2368 23.5872 27.5328 23.6592C28.0416 23.688 29.4528 23.5584 29.688 23.4384C29.904 23.0016 30.0096 22.488 30.0096 22.488C30.0096 22.488 29.8704 22.2384 29.7792 21.9888C29.0352 22.4976 24.8112 22.6176 24.0816 22.6416C24.0624 22.6416 24.0432 22.6512 24.0288 22.6512H24.0192C23.9856 22.6512 23.9712 22.6512 23.9712 22.6512C23.9712 22.6512 23.9568 22.6512 23.9232 22.6512H23.9136C23.8992 22.6512 23.88 22.6416 23.8608 22.6416C23.1312 22.6176 18.9024 22.5024 18.1632 21.9936C18.0768 22.2432 17.9424 22.4832 17.9424 22.4832Z" fill="#E4FFFF"/>
<path id="Vector_49" d="M17.9568 22.488C17.9568 22.488 18.0624 22.992 18.2784 23.424C18.5184 23.544 19.9248 23.6688 20.4288 23.64C21.72 23.568 22.3728 23.4384 22.5024 23.4096C22.7328 23.0784 22.7952 23.0064 22.7952 23.0064H25.1616C25.1616 23.0064 25.224 23.0784 25.4544 23.4096C25.584 23.4336 26.2368 23.568 27.528 23.64C28.032 23.6688 29.4432 23.5392 29.6784 23.424C29.8944 22.992 30 22.488 30 22.488C30 22.488 29.8656 22.2432 29.7696 21.9936C29.0304 22.4928 24.816 22.6128 24.0864 22.6368C24.0672 22.6368 24.048 22.6464 24.0336 22.6464H24.024C23.9904 22.6464 23.976 22.6464 23.976 22.6464C23.976 22.6464 23.9616 22.6464 23.928 22.6464H23.9184C23.904 22.6464 23.8896 22.6368 23.8656 22.6368C23.136 22.6128 18.9216 22.5024 18.1824 21.9984C18.096 22.248 17.9568 22.488 17.9568 22.488Z" fill="#E5FFFF"/>
<path id="Vector_50" d="M17.976 22.4976C17.976 22.4976 18.0816 22.992 18.2976 23.4192C18.5328 23.5344 19.9392 23.6592 20.4432 23.6304C21.7296 23.5584 22.3776 23.4288 22.5072 23.4048C22.7376 23.0784 22.8 23.0064 22.8 23.0064H25.1568C25.1568 23.0064 25.2192 23.0784 25.4496 23.4048C25.5792 23.4288 26.2272 23.5632 27.5136 23.6352C28.0176 23.664 29.4192 23.5392 29.6592 23.4192C29.8752 22.9968 29.9808 22.4976 29.9808 22.4976C29.9808 22.4976 29.8464 22.2576 29.7504 22.0128C29.0112 22.5072 24.8112 22.6224 24.0816 22.6464C24.0624 22.6464 24.0432 22.656 24.0336 22.656H24.024C23.9904 22.656 23.976 22.656 23.976 22.656C23.976 22.656 23.9616 22.656 23.928 22.656H23.9184C23.904 22.656 23.8896 22.6464 23.8704 22.6464C23.1456 22.6272 18.9408 22.512 18.2016 22.0176C18.1104 22.2576 17.976 22.4976 17.976 22.4976Z" fill="#E6FFFF"/>
<path id="Vector_51" d="M17.9904 22.5024C17.9904 22.5024 18.096 22.992 18.312 23.4096C18.5472 23.5248 19.9488 23.6448 20.448 23.6208C21.7296 23.5488 22.3776 23.424 22.5072 23.4C22.7376 23.0784 22.8 23.0064 22.8 23.0064H25.152C25.152 23.0064 25.2144 23.0784 25.4448 23.4C25.5744 23.424 26.2224 23.5536 27.504 23.6256C28.008 23.6544 29.4048 23.5296 29.64 23.4144C29.856 22.9968 29.9616 22.5072 29.9616 22.5072C29.9616 22.5072 29.8272 22.272 29.7312 22.0272C28.9968 22.512 24.8064 22.6272 24.0816 22.6512C24.0624 22.6512 24.0432 22.6608 24.0336 22.6608H24.024C23.9904 22.6608 23.976 22.6608 23.976 22.6608C23.976 22.6608 23.9616 22.6608 23.928 22.6608H23.9184C23.904 22.6608 23.8896 22.6512 23.8704 22.6512C23.1456 22.632 18.9552 22.5168 18.2208 22.032C18.1296 22.2672 17.9904 22.5024 17.9904 22.5024Z" fill="#E7FFFF"/>
<path id="Vector_52" d="M18.0096 22.5072C18.0096 22.5072 18.1152 22.9872 18.3312 23.4C18.5664 23.5152 19.9632 23.6352 20.4624 23.6064C21.744 23.5392 22.3872 23.4144 22.5168 23.3904C22.7472 23.0736 22.8096 23.0064 22.8096 23.0064H25.152C25.152 23.0064 25.2144 23.0784 25.4448 23.3904C25.5744 23.4144 26.2176 23.544 27.4992 23.6112C27.9984 23.64 29.3952 23.5152 29.6304 23.4048C29.8416 22.992 29.952 22.512 29.952 22.512C29.952 22.512 29.8176 22.2768 29.7216 22.0416C28.9872 22.5216 24.8112 22.632 24.0864 22.6512C24.0672 22.6512 24.048 22.6608 24.0384 22.6608H24.0288C23.9952 22.6608 23.9808 22.6608 23.9808 22.6608C23.9808 22.6608 23.9664 22.6608 23.9328 22.6608H23.9232C23.9088 22.6608 23.8944 22.6512 23.8752 22.6512C23.1504 22.632 18.9744 22.5216 18.24 22.0416C18.144 22.2768 18.0096 22.5072 18.0096 22.5072Z" fill="#E8FFFF"/>
<path id="Vector_53" d="M18.0288 22.512C18.0288 22.512 18.1344 22.9872 18.3456 23.3904C18.5808 23.5008 19.9728 23.6208 20.472 23.592C21.7488 23.5248 22.392 23.4 22.5216 23.376C22.7472 23.064 22.8096 22.9968 22.8096 22.9968H25.1472C25.1472 22.9968 25.2096 23.064 25.4352 23.376C25.5648 23.4 26.208 23.5248 27.4848 23.592C27.984 23.6208 29.376 23.5008 29.6112 23.3856C29.8224 22.9824 29.928 22.5072 29.928 22.5072C29.928 22.5072 29.7936 22.2768 29.6976 22.0464C28.968 22.5168 24.8016 22.6272 24.0816 22.6464C24.0624 22.6464 24.0432 22.656 24.0336 22.656H24.024C23.9904 22.656 23.976 22.656 23.976 22.656C23.976 22.656 23.9616 22.656 23.928 22.656H23.9184C23.904 22.656 23.8896 22.6464 23.8704 22.6464C23.1504 22.6272 18.984 22.5168 18.2544 22.0464C18.1632 22.2864 18.0288 22.512 18.0288 22.512Z" fill="#E9FFFF"/>
<path id="Vector_54" d="M18.0432 22.5168C18.0432 22.5168 18.1488 22.9824 18.36 23.3808C18.5952 23.4912 19.9824 23.6064 20.4816 23.5824C21.7536 23.5152 22.3968 23.3952 22.5264 23.3712C22.752 23.064 22.8144 22.9968 22.8144 22.9968H25.1472C25.1472 22.9968 25.2096 23.064 25.4352 23.3712C25.5648 23.3952 26.208 23.52 27.48 23.5872C27.9792 23.616 29.3664 23.496 29.6016 23.3856C29.8128 22.9872 29.9184 22.5216 29.9184 22.5216C29.9184 22.5216 29.784 22.296 29.6928 22.0656C28.9632 22.5312 24.8112 22.6368 24.0912 22.656C24.072 22.656 24.0528 22.6656 24.0432 22.6656H24.0336C24 22.6656 23.9856 22.6656 23.9856 22.6656C23.9856 22.6656 23.9712 22.6656 23.9376 22.6656H23.928C23.9136 22.6656 23.8992 22.656 23.88 22.656C23.16 22.6368 19.008 22.5312 18.2784 22.0656C18.1776 22.296 18.0432 22.5168 18.0432 22.5168Z" fill="#EAFFFF"/>
<path id="Vector_55" d="M18.0624 22.5216C18.0624 22.5216 18.168 22.9776 18.3792 23.3712C18.6144 23.4768 19.9968 23.592 20.4912 23.568C21.7584 23.5008 22.4016 23.3856 22.5264 23.3616C22.752 23.0592 22.8144 22.992 22.8144 22.992H25.1376C25.1376 22.992 25.2 23.0592 25.4256 23.3616C25.5552 23.3856 26.1936 23.5056 27.4608 23.5728C27.9552 23.5968 29.3424 23.4816 29.5728 23.376C29.784 22.9824 29.8896 22.5264 29.8896 22.5264C29.8896 22.5264 29.7552 22.3056 29.664 22.08C28.9392 22.536 24.7968 22.6416 24.0768 22.6608C24.0576 22.6608 24.0384 22.6704 24.0288 22.6704H24.0192C23.9856 22.6704 23.9712 22.6704 23.9712 22.6704C23.9712 22.6704 23.9568 22.6704 23.9232 22.6704H23.9136C23.8992 22.6704 23.8848 22.6608 23.8656 22.6608C23.1504 22.6416 19.008 22.536 18.2784 22.08C18.1968 22.3056 18.0624 22.5216 18.0624 22.5216Z" fill="#EBFFFF"/>
<path id="Vector_56" d="M18.0768 22.5264C18.0768 22.5264 18.1824 22.9776 18.3936 23.3616C18.6288 23.4672 20.0064 23.5824 20.5008 23.5536C21.7632 23.4912 22.4064 23.3712 22.5312 23.3472C22.7568 23.0544 22.8192 22.9872 22.8192 22.9872H25.1376C25.1376 22.9872 25.2 23.0544 25.4256 23.3472C25.5552 23.3712 26.1936 23.4912 27.456 23.5536C27.9504 23.5776 29.3328 23.4672 29.5632 23.3568C29.7744 22.9728 29.88 22.5216 29.88 22.5216C29.88 22.5216 29.7456 22.3008 29.6544 22.08C28.9296 22.5264 24.8016 22.632 24.0864 22.6512C24.0672 22.6512 24.048 22.6608 24.0384 22.6608H24.0288C23.9952 22.6608 23.9808 22.6608 23.9808 22.6608C23.9808 22.6608 23.9664 22.6608 23.9328 22.6608H23.9232C23.9088 22.6608 23.8944 22.6512 23.8752 22.6512C23.16 22.632 19.032 22.5312 18.3072 22.08C18.2112 22.3104 18.0768 22.5264 18.0768 22.5264Z" fill="#ECFFFF"/>
<path id="Vector_57" d="M18.096 22.5312C18.096 22.5312 18.2016 22.9728 18.4128 23.352C18.6432 23.4576 20.0208 23.568 20.5152 23.544C21.7776 23.4816 22.4112 23.3664 22.5408 23.3424C22.7664 23.0544 22.8288 22.9872 22.8288 22.9872H25.1424C25.1424 22.9872 25.2048 23.0544 25.4304 23.3424C25.5552 23.3664 26.1936 23.4816 27.456 23.5488C27.9504 23.5728 29.3232 23.4624 29.5584 23.3568C29.7696 22.9776 29.8752 22.536 29.8752 22.536C29.8752 22.536 29.7408 22.32 29.6496 22.104C28.9248 22.5456 24.8064 22.6464 24.096 22.6656C24.0768 22.6656 24.0576 22.6752 24.048 22.6752H24.0384C24.0048 22.6752 23.9904 22.6752 23.9904 22.6752C23.9904 22.6752 23.976 22.6752 23.9424 22.6752H23.9328C23.9184 22.6752 23.904 22.6656 23.8848 22.6656C23.1744 22.6464 19.056 22.5456 18.3312 22.104C18.2304 22.32 18.096 22.5312 18.096 22.5312Z" fill="#EDFFFF"/>
<path id="Vector_58" d="M18.1152 22.536C18.1152 22.536 18.2208 22.9728 18.4272 23.3424C18.6576 23.4432 20.0304 23.5536 20.5248 23.5296C21.7824 23.4672 22.416 23.352 22.5456 23.3328C22.7712 23.0496 22.8336 22.9824 22.8336 22.9824H25.1376C25.1376 22.9824 25.2 23.0448 25.4256 23.3328C25.5504 23.3568 26.1888 23.472 27.4464 23.5344C27.9408 23.5584 29.3088 23.448 29.544 23.3472C29.7552 22.9728 29.856 22.5408 29.856 22.5408C29.856 22.5408 29.7216 22.3296 29.6304 22.1136C28.9104 22.5456 24.8016 22.6512 24.0912 22.6656C24.072 22.6656 24.0528 22.6752 24.0432 22.6752H24.0336C24 22.6752 23.9856 22.6752 23.9856 22.6752C23.9856 22.6752 23.9712 22.6752 23.9376 22.6752H23.928C23.9136 22.6752 23.8992 22.6656 23.88 22.6656C23.1696 22.6464 19.0656 22.5456 18.3408 22.1136C18.2448 22.3296 18.1152 22.536 18.1152 22.536Z" fill="#EEFFFF"/>
<path id="Vector_59" d="M18.1296 22.5408C18.1296 22.5408 18.2352 22.968 18.4416 23.3328C18.672 23.4336 20.04 23.5392 20.5296 23.5152C21.7824 23.4528 22.416 23.3424 22.5408 23.3232C22.7664 23.0448 22.824 22.9824 22.824 22.9824H25.1232C25.1232 22.9824 25.1856 23.0448 25.4064 23.3232C25.5312 23.3472 26.1648 23.4576 27.4176 23.52C27.9072 23.544 29.2752 23.4384 29.5056 23.3376C29.7168 22.9728 29.8176 22.5408 29.8176 22.5408C29.8176 22.5408 29.6832 22.3344 29.592 22.1232C28.872 22.5504 24.7776 22.6512 24.072 22.6656C24.0528 22.6656 24.0336 22.6752 24.024 22.6752H24.0144C23.9808 22.6752 23.9664 22.6752 23.9664 22.6752C23.9664 22.6752 23.952 22.6752 23.9184 22.6752H23.9088C23.8944 22.6752 23.88 22.6656 23.8608 22.6656C23.1504 22.6464 19.0608 22.5504 18.3408 22.1232C18.264 22.3392 18.1296 22.5408 18.1296 22.5408Z" fill="#EFFFFF"/>
<path id="Vector_60" d="M18.1488 22.5504C18.1488 22.5504 18.2544 22.968 18.4608 23.328C18.6912 23.4288 20.0544 23.5296 20.544 23.5056C21.792 23.448 22.4256 23.3376 22.5504 23.3136C22.7712 23.04 22.8336 22.9776 22.8336 22.9776H25.1232C25.1232 22.9776 25.1856 23.04 25.4064 23.3136C25.5312 23.3328 26.1648 23.448 27.4128 23.5056C27.9024 23.5296 29.2656 23.424 29.496 23.3232C29.7024 22.9632 29.808 22.5408 29.808 22.5408C29.808 22.5408 29.6736 22.3344 29.5824 22.128C28.8672 22.5456 24.7824 22.6464 24.0768 22.6608C24.0576 22.6608 24.0384 22.6704 24.0288 22.6704H24.0192C23.9856 22.6704 23.9712 22.6704 23.9712 22.6704C23.9712 22.6704 23.9568 22.6704 23.9232 22.6704H23.9136C23.8992 22.6704 23.8848 22.6608 23.8656 22.6608C23.16 22.6416 19.0752 22.5456 18.36 22.128C18.2784 22.3488 18.1488 22.5504 18.1488 22.5504Z" fill="#F0FFFF"/>
<path id="Vector_61" d="M18.1632 22.5552C18.1632 22.5552 18.2688 22.968 18.4752 23.3232C18.7056 23.4192 20.064 23.5248 20.5536 23.5008C21.8016 23.4432 22.4304 23.3328 22.5552 23.3136C22.776 23.0448 22.8384 22.9824 22.8384 22.9824H25.1232C25.1232 22.9824 25.1856 23.0448 25.4064 23.3136C25.5312 23.3328 26.16 23.4432 27.408 23.5056C27.8976 23.5296 29.256 23.424 29.4864 23.328C29.6928 22.9728 29.7984 22.56 29.7984 22.56C29.7984 22.56 29.6688 22.3584 29.5728 22.1568C28.8576 22.5696 24.7872 22.6656 24.0864 22.68C24.0672 22.68 24.048 22.6896 24.0384 22.6896H24.0288C23.9952 22.6896 23.9808 22.6896 23.9808 22.6896C23.9808 22.6896 23.9664 22.6896 23.9328 22.6896H23.9232C23.9088 22.6896 23.8944 22.6848 23.8752 22.68C23.1696 22.6608 19.0992 22.5696 18.3888 22.1568C18.2976 22.3584 18.1632 22.5552 18.1632 22.5552Z" fill="#F1FFFF"/>
<path id="Vector_62" d="M18.1824 22.56C18.1824 22.56 18.288 22.9632 18.4944 23.3136C18.7248 23.4096 20.0784 23.5104 20.5632 23.4864C21.8064 23.4288 22.4352 23.3232 22.56 23.304C22.7808 23.04 22.8432 22.9776 22.8432 22.9776H25.1232C25.1232 22.9776 25.1856 23.0352 25.4064 23.304C25.5312 23.3232 26.16 23.4336 27.4032 23.4912C27.888 23.5152 29.2464 23.4096 29.472 23.3184C29.6784 22.9728 29.784 22.5648 29.784 22.5648C29.784 22.5648 29.6544 22.368 29.5632 22.1664C28.8528 22.5696 24.792 22.6656 24.0912 22.68C24.072 22.68 24.0528 22.6896 24.0432 22.6896H24.0336C24 22.6896 23.9856 22.6896 23.9856 22.6896C23.9856 22.6896 23.9712 22.6896 23.9376 22.6896H23.928C23.9136 22.6896 23.8992 22.6848 23.88 22.68C23.1792 22.6608 19.1184 22.5696 18.408 22.1664C18.312 22.368 18.1824 22.56 18.1824 22.56Z" fill="#F2FFFF"/>
<path id="Vector_63" d="M18.1968 22.5648C18.1968 22.5648 18.3024 22.9632 18.5088 23.304C18.7392 23.4 20.088 23.496 20.5728 23.472C21.8112 23.4144 22.4352 23.3136 22.56 23.2896C22.7808 23.0304 22.8432 22.9728 22.8432 22.9728H25.1136C25.1136 22.9728 25.176 23.0304 25.3968 23.2896C25.5216 23.3088 26.1456 23.4144 27.384 23.472C27.8688 23.496 29.2224 23.3952 29.448 23.2992C29.6544 22.9584 29.76 22.56 29.76 22.56C29.76 22.56 29.6304 22.368 29.5392 22.1712C28.8288 22.5648 24.7824 22.6608 24.0816 22.6752C24.0624 22.6752 24.0432 22.68 24.0336 22.68H24.024C23.9904 22.68 23.976 22.68 23.976 22.68C23.976 22.68 23.9616 22.68 23.928 22.68H23.9184C23.904 22.68 23.8896 22.6752 23.8704 22.6704C23.1696 22.6512 19.1232 22.5648 18.4128 22.1664C18.3312 22.3728 18.1968 22.5648 18.1968 22.5648Z" fill="#F3FFFF"/>
<path id="Vector_64" d="M18.216 22.5696C18.216 22.5696 18.3168 22.9584 18.5232 23.2944C18.7488 23.3856 20.0976 23.4816 20.5824 23.4624C21.816 23.4048 22.44 23.304 22.5648 23.2848C22.7856 23.0304 22.848 22.9728 22.848 22.9728H25.1136C25.1136 22.9728 25.176 23.0304 25.3968 23.2848C25.5216 23.304 26.1456 23.4096 27.3792 23.4624C27.864 23.4864 29.208 23.3856 29.4384 23.2944C29.6448 22.9584 29.7456 22.5696 29.7456 22.5696C29.7456 22.5696 29.616 22.3824 29.5248 22.1904C28.8144 22.5792 24.7824 22.6704 24.0864 22.6848C24.0672 22.6848 24.048 22.6896 24.0384 22.6896H24.0288C23.9952 22.6896 23.9808 22.6896 23.9808 22.6896C23.9808 22.6896 23.9664 22.6896 23.9328 22.6896H23.9232C23.9088 22.6896 23.8944 22.6848 23.8752 22.68C23.1792 22.6608 19.1424 22.5744 18.4368 22.1856C18.3456 22.3824 18.216 22.5696 18.216 22.5696Z" fill="#F4FFFF"/>
<path id="Vector_65" d="M18.2352 22.5744C18.2352 22.5744 18.336 22.9584 18.5424 23.2848C18.768 23.376 20.112 23.472 20.592 23.448C21.8256 23.3952 22.4448 23.2944 22.5696 23.2752C22.7904 23.0256 22.848 22.968 22.848 22.968H25.104C25.104 22.968 25.1664 23.0256 25.3824 23.2752C25.5072 23.2944 26.1264 23.3952 27.36 23.4528C27.84 23.4768 29.184 23.376 29.4144 23.2896C29.6208 22.9632 29.7216 22.5792 29.7216 22.5792C29.7216 22.5792 29.592 22.392 29.5008 22.2048C28.7952 22.584 24.7728 22.6752 24.0768 22.6896C24.0576 22.6896 24.0432 22.6944 24.0288 22.6944H24.024C23.9904 22.6944 23.976 22.6944 23.976 22.6944C23.976 22.6944 23.9616 22.6944 23.928 22.6944H23.9232C23.9088 22.6944 23.8944 22.6896 23.8752 22.6896C23.1792 22.6752 19.1568 22.584 18.4512 22.2048C18.3648 22.392 18.2352 22.5744 18.2352 22.5744Z" fill="#F5FFFF"/>
<path id="Vector_66" d="M18.2496 22.5792C18.2496 22.5792 18.3504 22.9536 18.5568 23.2752C18.7824 23.3616 20.1216 23.4576 20.6016 23.4336C21.8304 23.3808 22.4496 23.2848 22.5744 23.2656C22.7952 23.0208 22.8528 22.9632 22.8528 22.9632H25.104C25.104 22.9632 25.1664 23.016 25.3824 23.2656C25.5072 23.2848 26.1264 23.3856 27.3552 23.4384C27.8352 23.4576 29.1744 23.3664 29.4 23.2752C29.6064 22.9536 29.7072 22.5792 29.7072 22.5792C29.7072 22.5792 29.5776 22.3968 29.4864 22.2144C28.7808 22.5888 24.7728 22.6752 24.0768 22.6896C24.0576 22.6896 24.0432 22.6944 24.0288 22.6944H24.024C23.9904 22.6944 23.976 22.6944 23.976 22.6944C23.976 22.6944 23.9616 22.6944 23.928 22.6944H23.9232C23.9088 22.6944 23.8944 22.6896 23.8752 22.6896C23.1792 22.6752 19.1712 22.5888 18.4656 22.2144C18.3792 22.4016 18.2496 22.5792 18.2496 22.5792Z" fill="#F6FFFF"/>
<path id="Vector_67" d="M18.2688 22.584C18.2688 22.584 18.3696 22.9488 18.576 23.2656C18.8016 23.352 20.136 23.4432 20.616 23.424C21.84 23.3712 22.4592 23.2752 22.584 23.256C22.8 23.016 22.8624 22.9632 22.8624 22.9632H25.104C25.104 22.9632 25.1664 23.016 25.3824 23.256C25.5072 23.2752 26.1216 23.3712 27.3504 23.424C27.8304 23.4432 29.1648 23.352 29.3904 23.2656C29.5968 22.9488 29.6976 22.584 29.6976 22.584C29.6976 22.584 29.568 22.4064 29.4768 22.224C28.776 22.5888 24.7776 22.6752 24.0864 22.6896C24.0672 22.6896 24.0528 22.6944 24.0384 22.6944H24.0336C24 22.6944 23.9856 22.6944 23.9856 22.6944C23.9856 22.6944 23.9712 22.6944 23.9376 22.6944H23.9328C23.9184 22.6944 23.904 22.6896 23.8848 22.6896C23.1936 22.6752 19.1952 22.5888 18.4944 22.224C18.3984 22.4112 18.2688 22.584 18.2688 22.584Z" fill="#F7FFFF"/>
<path id="Vector_68" d="M18.2832 22.5888C18.2832 22.5888 18.384 22.9488 18.5904 23.256C18.816 23.3424 20.1456 23.4288 20.6256 23.4096C21.8448 23.3568 22.464 23.2656 22.584 23.2464C22.8 23.0112 22.8624 22.9584 22.8624 22.9584H25.0992C25.0992 22.9584 25.1616 23.0112 25.3776 23.2464C25.5024 23.2656 26.1168 23.3616 27.336 23.4144C27.816 23.4336 29.1456 23.3424 29.3712 23.2608C29.5728 22.9536 29.6784 22.5936 29.6784 22.5936C29.6784 22.5936 29.5488 22.4208 29.4576 22.2432C28.7568 22.6032 24.7728 22.6848 24.0816 22.6992C24.0624 22.6992 24.048 22.704 24.0336 22.704H24.0288C23.9952 22.704 23.9808 22.704 23.9808 22.704C23.9808 22.704 23.9664 22.704 23.9328 22.704H23.928C23.9136 22.704 23.8992 22.6992 23.88 22.6992C23.1888 22.6848 19.2048 22.6032 18.504 22.2432C18.4128 22.4208 18.2832 22.5888 18.2832 22.5888Z" fill="#F8FFFF"/>
<path id="Vector_69" d="M18.3024 22.5984C18.3024 22.5984 18.4032 22.9488 18.6048 23.2512C18.8304 23.3328 20.1552 23.424 20.6304 23.4C21.8448 23.352 22.4592 23.256 22.584 23.2416C22.8 23.0112 22.8624 22.9584 22.8624 22.9584H25.0944C25.0944 22.9584 25.152 23.0112 25.3728 23.2416C25.4976 23.2608 26.112 23.352 27.3264 23.4048C27.8016 23.424 29.1312 23.3376 29.352 23.2512C29.5536 22.9488 29.6544 22.5984 29.6544 22.5984C29.6544 22.5984 29.5248 22.4256 29.4384 22.2528C28.7424 22.6032 24.768 22.6848 24.0816 22.6992C24.0624 22.6992 24.048 22.704 24.0336 22.704H24.0288C23.9952 22.704 23.9808 22.704 23.9808 22.704C23.9808 22.704 23.9664 22.704 23.9328 22.704H23.928C23.9136 22.704 23.8992 22.6992 23.88 22.6992C23.1936 22.6848 19.2192 22.6032 18.5232 22.2528C18.432 22.4304 18.3024 22.5984 18.3024 22.5984Z" fill="#F9FFFF"/>
<path id="Vector_70" d="M18.3168 22.6032C18.3168 22.6032 18.4176 22.9488 18.6192 23.2416C18.8448 23.3232 20.1648 23.4096 20.64 23.3904C21.8544 23.3424 22.464 23.2512 22.5888 23.232C22.8048 23.0064 22.8624 22.9536 22.8624 22.9536H25.0848C25.0848 22.9536 25.1424 23.0064 25.3584 23.232C25.4784 23.2512 26.0928 23.3424 27.3072 23.3904C27.7824 23.4096 29.1072 23.3232 29.328 23.2416C29.5296 22.9488 29.6304 22.6032 29.6304 22.6032C29.6304 22.6032 29.5008 22.4352 29.4144 22.2672C28.7184 22.608 24.7584 22.6896 24.072 22.704C24.0528 22.704 24.0384 22.7088 24.024 22.7088H24.0192C23.9856 22.7088 23.9712 22.7088 23.9712 22.7088C23.9712 22.7088 23.9568 22.7088 23.9232 22.7088H23.9184C23.904 22.7088 23.8896 22.704 23.8704 22.704C23.184 22.6896 19.224 22.6128 18.528 22.2672C18.4464 22.4352 18.3168 22.6032 18.3168 22.6032Z" fill="#FAFFFF"/>
<path id="Vector_71" d="M18.336 22.608C18.336 22.608 18.4368 22.944 18.6384 23.232C18.8592 23.3136 20.1792 23.3952 20.6544 23.376C21.864 23.328 22.4736 23.2416 22.5984 23.2224C22.8144 23.0016 22.872 22.9536 22.872 22.9536H25.0896C25.0896 22.9536 25.1472 23.0016 25.3632 23.2224C25.4832 23.2416 26.0976 23.328 27.3072 23.376C27.7824 23.3952 29.1024 23.3088 29.3232 23.232C29.5248 22.944 29.6256 22.608 29.6256 22.608C29.6256 22.608 29.496 22.4448 29.4096 22.2768C28.7184 22.6128 24.768 22.6896 24.0816 22.704C24.0624 22.704 24.048 22.7088 24.0336 22.7088H24.0288C23.9952 22.7088 23.9808 22.7088 23.9808 22.7088C23.9808 22.7088 23.9664 22.7088 23.9328 22.7088H23.928C23.9136 22.7088 23.8992 22.704 23.88 22.704C23.1984 22.6896 19.248 22.6128 18.552 22.2768C18.4656 22.4448 18.336 22.608 18.336 22.608Z" fill="#FBFFFF"/>
<path id="Vector_72" d="M18.3552 22.6128C18.3552 22.6128 18.456 22.944 18.6576 23.2224C18.8784 23.2992 20.1936 23.3808 20.6688 23.3616C21.8736 23.3136 22.4832 23.2272 22.6032 23.2128C22.8192 22.9968 22.8768 22.9488 22.8768 22.9488H25.0896C25.0896 22.9488 25.1472 22.9968 25.3632 23.2128C25.4832 23.232 26.0928 23.3184 27.2976 23.3664C27.768 23.3856 29.0832 23.304 29.3088 23.2224C29.5104 22.9392 29.6112 22.6128 29.6112 22.6128C29.6112 22.6128 29.4816 22.4544 29.3952 22.2912C28.704 22.6176 24.768 22.6944 24.0864 22.7088C24.0672 22.7088 24.0528 22.7136 24.0384 22.7136H24.0336C24.0048 22.7136 23.9856 22.7136 23.9856 22.7136C23.9856 22.7136 23.9712 22.7136 23.9376 22.7136H23.9328C23.9184 22.7136 23.904 22.7088 23.8848 22.7088C23.2032 22.6944 19.2672 22.6176 18.576 22.2912C18.48 22.4544 18.3552 22.6128 18.3552 22.6128Z" fill="#FCFFFF"/>
<path id="Vector_73" d="M18.3696 22.6176C18.3696 22.6176 18.4704 22.9392 18.672 23.2128C18.8928 23.2896 20.2032 23.3712 20.6736 23.352C21.8736 23.304 22.4832 23.2224 22.6032 23.208C22.8192 22.9968 22.8768 22.9488 22.8768 22.9488H25.08C25.08 22.9488 25.1376 22.9968 25.3536 23.208C25.4736 23.2224 26.0832 23.3088 27.2832 23.3568C27.7536 23.376 29.064 23.2944 29.2848 23.2176C29.4864 22.944 29.5872 22.6224 29.5872 22.6224C29.5872 22.6224 29.4576 22.464 29.3712 22.3056C28.68 22.6272 24.7584 22.6992 24.0768 22.7136C24.0576 22.7136 24.0432 22.7184 24.0288 22.7184H24.024C23.9952 22.7184 23.976 22.7184 23.976 22.7184C23.976 22.7184 23.9616 22.7184 23.928 22.7184H23.9232C23.9088 22.7184 23.8944 22.7136 23.8752 22.7136C23.1984 22.6992 19.272 22.6272 18.5808 22.3056C18.4992 22.464 18.3696 22.6176 18.3696 22.6176Z" fill="#FDFFFF"/>
<path id="Vector_74" d="M18.3888 22.6224C18.3888 22.6224 18.4896 22.9344 18.6864 23.2032C18.9072 23.2752 20.2128 23.3568 20.6832 23.3376C21.8832 23.2944 22.488 23.2128 22.608 23.1936C22.824 22.9872 22.8816 22.944 22.8816 22.944H25.08C25.08 22.944 25.1376 22.992 25.3536 23.1936C25.4736 23.208 26.0784 23.2944 27.2784 23.3376C27.7488 23.3568 29.0544 23.2752 29.2752 23.2032C29.4768 22.9344 29.5728 22.6176 29.5728 22.6176C29.5728 22.6176 29.448 22.464 29.3568 22.3104C28.6704 22.6224 24.7584 22.6944 24.0768 22.7088C24.0576 22.7088 24.0432 22.7136 24.0288 22.7136H24.024C23.9952 22.7136 23.976 22.7136 23.976 22.7136C23.976 22.7136 23.9616 22.7136 23.928 22.7136H23.9232C23.9136 22.7136 23.8944 22.7088 23.8752 22.7088C23.1984 22.6944 19.2864 22.6224 18.5952 22.3104C18.5136 22.4736 18.3888 22.6224 18.3888 22.6224Z" fill="#FEFFFF"/>
<path id="Vector_75" d="M18.4032 22.6272C18.4032 22.6272 18.504 22.9344 18.7008 23.1936C18.9216 23.2656 20.2224 23.3424 20.6928 23.3232C21.888 23.28 22.4928 23.1984 22.6128 23.184C22.824 22.9824 22.8864 22.9392 22.8864 22.9392H25.0752C25.0752 22.9392 25.1328 22.9824 25.3488 23.184C25.4688 23.1984 26.0736 23.28 27.2688 23.3232C27.7344 23.3424 29.04 23.2608 29.2608 23.1888C29.4576 22.9248 29.5584 22.6176 29.5584 22.6176C29.5584 22.6176 29.4336 22.4688 29.3424 22.32C28.656 22.6272 24.7536 22.6992 24.0816 22.7088C24.0624 22.7088 24.048 22.7136 24.0336 22.7136H24.0288C24 22.7136 23.9808 22.7136 23.9808 22.7136C23.9808 22.7136 23.9664 22.7136 23.9328 22.7136H23.928C23.9184 22.7136 23.8992 22.7088 23.88 22.7088C23.2032 22.6992 19.3056 22.6272 18.6192 22.32C18.5328 22.4832 18.4032 22.6272 18.4032 22.6272Z" fill="white"/>
</g>
<path id="Vector_76" opacity="0.2" d="M16.4352 15.9744C16.4448 16.0128 16.4592 16.056 16.4688 16.1088C17.064 18.5808 16.4688 23.1888 16.4688 23.1888C16.416 23.6832 16.2192 24.1632 16.0464 24.1776C15.9456 22.9056 15.744 18.1296 16.4352 15.9744Z" fill="black"/>
<path id="Vector_77" opacity="0.2" d="M31.5648 15.8544C31.5552 15.8928 31.5408 15.936 31.5312 15.9888C30.936 18.4608 31.5312 23.0688 31.5312 23.0688C31.584 23.5632 31.7808 24.0432 31.9536 24.0576C32.0544 22.7856 32.256 18.0048 31.5648 15.8544Z" fill="black"/>
<path id="Vector_78" opacity="0.1" d="M30.912 26.8896C30.912 26.8896 29.0784 28.7712 28.92 31.5504C28.8096 33.48 28.968 33.672 28.68 33.888C27.912 34.4736 22.8816 32.568 22.6608 31.6176C22.44 30.6672 28.0944 27.3216 29.5632 26.7312C31.032 26.1408 31.0848 26.0208 30.912 26.8896Z" fill="black"/>
<path id="Vector_79" opacity="0.1" d="M17.1312 26.8896C17.1312 26.8896 18.9648 28.7712 19.1232 31.5504C19.2336 33.48 19.0752 33.672 19.3632 33.888C20.1312 34.4736 25.1616 32.568 25.3824 31.6176C25.6032 30.6672 19.9488 27.3216 18.48 26.7312C17.0064 26.1408 16.9584 26.0208 17.1312 26.8896Z" fill="black"/>
<path id="Vector_80" d="M16.1136 24.2304C16.2144 24.8496 16.368 25.3776 16.5456 25.824C16.5504 25.8288 16.5504 25.8384 16.5552 25.8432C16.8288 26.52 17.1552 26.9952 17.4288 27.2928C17.5152 27.3888 17.6016 27.4656 17.6784 27.5232C18.6336 28.2576 19.5456 30.1392 19.4256 32.208L20.52 33.1824C20.52 33.1824 21.3696 32.088 21.3696 31.8432C21.1872 30.8688 20.3664 29.6544 19.3344 28.5264C18.3024 27.3984 17.6016 25.7568 17.3568 25.0272C17.3568 25.0272 17.0976 23.8704 17.2368 22.2288C17.2368 22.2288 17.3904 21.816 17.496 21.3936C17.4912 21.384 17.4816 21.3792 17.4768 21.3744C17.5776 20.3472 17.4864 19.2 17.3616 18.2448C17.352 18.1728 17.3424 18.1056 17.3328 18.0384C17.28 17.664 17.2272 17.328 17.1792 17.0448C17.1264 16.7328 17.0208 16.128 17.0016 16.008C17.0016 16.0032 16.9968 15.9984 16.9968 15.9888C16.9968 15.984 16.9968 15.984 16.9968 15.984C16.9968 15.984 17.0832 18.4752 16.8672 21.3744C16.7424 23.0496 16.3584 23.136 16.1136 24.2304Z" fill="#DB6833" stroke="#171717" stroke-width="0.192" stroke-miterlimit="10" stroke-linecap="round" stroke-linejoin="round"/>
<path id="Vector_81" d="M19.2864 32.5632L20.5008 33.6576L21.4752 32.3184C21.4752 32.3184 21.84 33.5328 21.96 34.3872L20.5008 35.3616L19.1616 34.0224L19.2864 32.5632Z" fill="#DB6833" stroke="#171717" stroke-width="0.192" stroke-miterlimit="10" stroke-linecap="round" stroke-linejoin="round"/>
<path id="Vector_82" d="M17.2272 22.2288C17.2272 22.2288 17.3472 23.0784 17.592 23.808C17.8608 24.0096 19.4544 24.2208 20.0256 24.1728C21.4848 24.0528 22.224 23.8176 22.368 23.7744C22.6272 23.2176 22.6992 23.0784 22.6992 23.0784H23.9808H24.0384H25.32C25.32 23.0784 25.392 23.2176 25.6512 23.7744C25.8 23.8176 26.5344 24.0528 27.9936 24.1728C28.5648 24.2208 30.1584 24.0096 30.4272 23.808C30.672 23.0784 30.792 22.2288 30.792 22.2288C30.9312 23.8704 30.672 25.0272 30.672 25.0272C30.4272 25.7568 29.7312 27.3984 28.6944 28.5264C27.6576 29.6544 26.8416 30.8688 26.6592 31.8432H24.0384H23.9808H21.36C21.1776 30.8688 20.3568 29.6544 19.3248 28.5264C18.2928 27.4032 17.592 25.7568 17.3472 25.0272C17.3472 25.0224 17.088 23.8704 17.2272 22.2288Z" fill="#E7A24E" stroke="#171717" stroke-width="0.111077" stroke-miterlimit="10" stroke-linecap="round" stroke-linejoin="round"/>
<path id="Vector_83" d="M23.9808 31.8384L21.36 31.8C21.1776 30.8256 20.3568 29.6304 19.3248 28.5024C18.2928 27.3792 17.592 25.7424 17.3472 25.0128C17.3472 25.0128 17.088 23.8608 17.2272 22.2192C17.2272 22.2192 17.3472 23.0736 17.592 23.8032C17.688 23.8752 18.4128 24.0336 18.7536 24.096C18.7824 24.4464 18.9648 25.3776 19.1664 25.8384C19.896 27.4896 20.4576 27.3984 21.9552 30.1248C22.4208 30.9744 22.6032 31.8144 23.9808 31.8384Z" fill="#E38F3E"/>
<path id="Vector_84" d="M31.9104 24.2304C31.8096 24.8496 31.656 25.3776 31.4784 25.824C31.4736 25.8288 31.4736 25.8384 31.4688 25.8432C31.1952 26.52 30.8688 26.9952 30.5952 27.2928C30.5088 27.3888 30.4224 27.4656 30.3456 27.5232C29.3904 28.2576 28.4784 30.1392 28.5984 32.208L27.504 33.1824C27.504 33.1824 26.6544 32.088 26.6544 31.8432C26.8368 30.8688 27.6576 29.6544 28.6896 28.5264C29.7216 27.4032 30.4224 25.7568 30.6672 25.0272C30.6672 25.0272 30.9264 23.8704 30.7872 22.2288C30.7872 22.2288 30.6336 21.816 30.528 21.3936C30.5328 21.384 30.5424 21.3792 30.5472 21.3744C30.4464 20.3472 30.5376 19.2 30.6624 18.2448C30.672 18.1728 30.6816 18.1056 30.6912 18.0384C30.744 17.664 30.7968 17.328 30.8448 17.0448C30.8976 16.7328 31.0032 16.128 31.0224 16.008C31.0224 16.0032 31.0272 15.9984 31.0272 15.9888C31.0272 15.984 31.0272 15.984 31.0272 15.984C31.0272 15.984 30.9408 18.4752 31.1568 21.3744C31.2816 23.0496 31.6656 23.136 31.9104 24.2304Z" fill="#DC8640" stroke="#171717" stroke-width="0.192" stroke-miterlimit="10" stroke-linecap="round" stroke-linejoin="round"/>
<path id="Vector_85" d="M31.0464 19.2912C30.9312 20.2224 30.8496 21.3264 30.9456 22.3152C30.9408 22.32 30.9312 22.3248 30.9264 22.3344C31.032 22.752 30.8352 25.0464 30.8352 25.0464C30.5904 25.776 30.744 26.4048 29.2848 28.4736C28.4544 29.6496 27.3216 31.6128 27.0912 32.6064C26.8752 32.2992 26.6592 31.9584 26.6592 31.8384C26.8416 30.864 27.6624 29.6496 28.6944 28.5216C29.7264 27.3936 30.4272 25.752 30.672 25.0224C30.672 25.0224 30.9312 23.8656 30.792 22.224C30.792 22.224 30.6384 21.8112 30.5328 21.3888C30.5376 21.3792 30.5472 21.3744 30.552 21.3696C30.4512 20.3424 30.5424 19.1952 30.6672 18.24C30.6768 18.168 30.6864 18.1008 30.696 18.0336C30.7488 17.6592 30.8016 17.3232 30.8496 17.04C30.9024 16.728 31.008 16.1232 31.0272 16.0032C31.0272 15.9984 31.032 15.9936 31.032 15.984C31.032 15.9792 31.032 15.9792 31.032 15.9792C31.032 15.9792 30.9792 17.376 31.0464 19.2912Z" fill="#D87A3A"/>
<path id="Vector_86" d="M28.7232 32.5632L27.5088 33.6576L26.5344 32.3184C26.5344 32.3184 26.1696 33.5328 26.0496 34.3872L27.5088 35.3616L28.848 34.0224L28.7232 32.5632Z" fill="#DC9740" stroke="#171717" stroke-width="0.192" stroke-miterlimit="10" stroke-linecap="round" stroke-linejoin="round"/>
<path id="Vector_87" d="M23.9808 32.3232H26.5344C26.5344 32.3232 26.1696 33.5376 26.0496 34.392H24.8352L24.5904 33.9072H23.9808H23.3712L23.1264 34.392H21.912C21.792 33.5424 21.4272 32.3232 21.4272 32.3232H23.9808Z" fill="#E7A24E" stroke="#171717" stroke-width="0.111077" stroke-miterlimit="10" stroke-linecap="round" stroke-linejoin="round"/>
<path id="Vector_88" d="M21.912 34.392H23.1264L23.3712 33.9072H23.9808H24.5904L24.8352 34.392H26.0496L27.5088 35.3664C27.5088 35.3664 27.3696 35.5296 26.8992 36.096H23.9808H21.0624C20.592 35.5296 20.4528 35.3664 20.4528 35.3664L21.912 34.392Z" fill="#B1171C" stroke="#171717" stroke-width="0.111077" stroke-miterlimit="10" stroke-linecap="round" stroke-linejoin="round"/>
<path id="Vector_89" opacity="0.4" d="M22.4784 34.0608H23.376L23.5584 33.7008H24.0096H24.4608L24.6432 34.0608H25.5456L26.0544 34.152C26.0544 34.152 25.9392 34.7424 25.728 36.096H23.9856H22.128C21.8976 34.392 21.9648 34.392 21.9648 34.392L22.4784 34.0608Z" fill="white"/>
<path id="Vector_90" d="M21.96 34.392L22.4736 34.0608H22.8672C22.9248 34.5312 22.9488 35.7744 23.2464 36.0912H22.1184C21.8928 34.392 21.96 34.392 21.96 34.392Z" fill="#C71A1F"/>
<path id="Vector_91" d="M23.9808 32.3232H26.5344C26.5344 32.3232 26.1696 33.5376 26.0496 34.392H24.8352L24.5904 33.9072H23.9808H23.3712L23.1264 34.392H21.912C21.792 33.5424 21.4272 32.3232 21.4272 32.3232H23.9808Z" fill="#E7A24E" stroke="#171717" stroke-width="0.192" stroke-miterlimit="10" stroke-linecap="round" stroke-linejoin="round"/>
<path id="Vector_92" d="M22.9584 34.3536H21.9168C21.7968 33.504 21.432 32.2848 21.432 32.2848H22.5552C22.7184 33.0144 22.5408 33.9024 22.9584 34.3536Z" fill="#E38F3E"/>
<path id="Vector_93" d="M21.48 15.288L21.9312 17.016C21.9312 17.016 22.968 17.1408 23.9232 17.1408H24.0432C24.9984 17.1408 26.0352 17.016 26.0352 17.016L26.4672 15.3408C25.6992 14.9952 24.8256 14.8032 23.904 14.8032C23.0304 14.8032 22.2096 14.9808 21.48 15.288Z" fill="#B1171C" stroke="#171717" stroke-width="0.192" stroke-miterlimit="10" stroke-linecap="round" stroke-linejoin="round"/>
<path id="Vector_94" opacity="0.4" d="M22.1712 15.4416L22.3152 17.28C22.3152 17.28 23.2416 17.7456 23.976 17.7456L24.2592 17.8656C24.9936 17.8656 25.6176 16.992 25.6176 16.992L26.0064 15.48C25.416 15.2112 24.744 15.0672 24.0336 15.0672C23.3712 15.072 22.7376 15.2064 22.1712 15.4416Z" fill="white"/>
<path id="Vector_95" d="M16.9296 15.9888C16.9296 15.9984 16.9344 16.0032 16.9344 16.008C16.944 16.0656 16.9536 16.1232 16.9632 16.1808C17.0592 16.7472 17.1744 17.376 17.2704 18.0384C17.28 18.1056 17.2896 18.1776 17.2992 18.2496C17.4384 19.272 17.5248 20.3568 17.4144 21.3792C17.4192 21.384 17.4288 21.3888 17.4336 21.3984C17.6736 21.6432 18.24 21.8304 18.9408 21.9792C20.6832 22.344 23.2704 22.4496 23.8608 22.4688C23.8848 22.4688 23.904 22.4736 23.9184 22.4736H23.928C23.9664 22.4784 23.9856 22.4784 23.9856 22.4784C23.9856 22.4784 24.0048 22.4784 24.0432 22.4736H24.0528C24.0672 22.4736 24.0864 22.4736 24.1104 22.4688C24.6768 22.4496 27.1104 22.3488 28.848 22.0128C29.6352 21.8592 30.2784 21.6624 30.5376 21.3936C30.5424 21.384 30.552 21.3792 30.5568 21.3744C30.4416 20.352 30.528 19.2672 30.672 18.2448C30.6816 18.1728 30.6912 18.1056 30.7008 18.0336C30.7968 17.3712 30.912 16.7424 31.008 16.176C31.0176 16.1184 31.0272 16.0608 31.0368 16.0032C31.0368 15.9984 31.0416 15.9936 31.0416 15.984V15.9792C30.3024 15.4176 29.4672 14.9616 28.5648 14.64C27.9936 14.4384 27.3936 14.2896 26.7744 14.1984L26.4816 15.3408L26.0496 17.0256C26.0496 17.0256 25.0128 17.16 24.0576 17.1696H23.9376C22.9824 17.1648 21.9456 17.0256 21.9456 17.0256L21.4944 15.2784L21.216 14.1984C20.5968 14.2896 19.9968 14.4384 19.4256 14.64C18.504 14.9712 17.6688 15.4272 16.9296 15.9888Z" fill="#E7A24E" stroke="#171717" stroke-width="0.192" stroke-miterlimit="10" stroke-linecap="round" stroke-linejoin="round"/>
<path id="Vector_96" d="M17.2272 22.2288C17.2272 22.2288 17.3472 23.0784 17.592 23.808C17.8608 24.0096 19.4544 24.2208 20.0256 24.1728C21.4848 24.0528 22.224 23.8176 22.368 23.7744C22.6272 23.2176 22.6992 23.0784 22.6992 23.0784H23.9808H24.0384H25.32C25.32 23.0784 25.392 23.2176 25.6512 23.7744C25.8 23.8176 26.5344 24.0528 27.9936 24.1728C28.5648 24.2208 30.1584 24.0096 30.4272 23.808C30.672 23.0784 30.792 22.2288 30.792 22.2288C30.9312 23.8704 30.672 25.0272 30.672 25.0272C30.4272 25.7568 29.7312 27.3984 28.6944 28.5264C27.6576 29.6544 26.8416 30.8688 26.6592 31.8432H24.0384H23.9808H21.36C21.1776 30.8688 20.3568 29.6544 19.3248 28.5264C18.2928 27.4032 17.592 25.7568 17.3472 25.0272C17.3472 25.0224 17.088 23.8704 17.2272 22.2288Z" stroke="#171717" stroke-width="0.192" stroke-miterlimit="10" stroke-linecap="round" stroke-linejoin="round"/>
<g id="Group_3" opacity="0.1">
<g id="Group_4" opacity="0.1">
<g id="Group_5" opacity="0.1">
<path id="Vector_97" opacity="0.1" d="M23.6544 12.6528C21.5904 12.6528 19.6656 13.1376 18.0336 13.9776C18.8256 13.3296 19.7424 12.8112 20.7456 12.456C21.7488 12.1008 22.8384 11.904 23.976 11.904C25.1136 11.904 26.2032 12.1008 27.2064 12.456C28.776 13.0128 30.1344 13.968 31.1376 15.1872C31.1472 15.1968 31.152 15.2064 31.1616 15.216C29.2368 13.632 26.5824 12.6528 23.6544 12.6528Z" fill="black"/>
</g>
</g>
</g>
<path id="Vector_98" opacity="0.6" d="M26.2944 30.1248C26.1552 30.4704 26.1552 30.4704 26.1552 30.4704" stroke="white" stroke-width="0.222154" stroke-miterlimit="10" stroke-linecap="round" stroke-linejoin="round"/>
<path id="Vector_99" opacity="0.6" d="M29.5632 25.2C29.5632 25.2 29.28 26.3088 27.8064 27.9024C27.4416 28.296 26.8224 29.136 26.5872 29.5968" stroke="white" stroke-width="0.222154" stroke-miterlimit="10" stroke-linecap="round" stroke-linejoin="round"/>
<path id="Vector_100" opacity="0.5" d="M30.1104 17.2032C29.9088 18.0096 29.6256 19.2864 29.688 20.04" stroke="white" stroke-width="0.222154" stroke-miterlimit="10" stroke-linecap="round" stroke-linejoin="round"/>
<path id="Vector_101" opacity="0.5" d="M30.3072 16.4736C30.3072 16.4736 30.2976 16.5312 30.2352 16.7616" stroke="white" stroke-width="0.222154" stroke-miterlimit="10" stroke-linecap="round" stroke-linejoin="round"/>
<path id="Vector_102" opacity="0.5" d="M21.1872 16.5936L21.264 16.92" stroke="white" stroke-width="0.222154" stroke-miterlimit="10" stroke-linecap="round" stroke-linejoin="round"/>
<path id="Vector_103" opacity="0.5" d="M20.7552 15.072L21.0144 16.1088" stroke="white" stroke-width="0.222154" stroke-miterlimit="10" stroke-linecap="round" stroke-linejoin="round"/>
<path id="Vector_104" d="M21.912 34.392H23.1264L23.3712 33.9072H23.9808H24.5904L24.8352 34.392H26.0496L27.5088 35.3664C27.5088 35.3664 27.3696 35.5296 26.8992 36.096H23.9808H21.0624C20.592 35.5296 20.4528 35.3664 20.4528 35.3664L21.912 34.392Z" stroke="#171717" stroke-width="0.192" stroke-miterlimit="10" stroke-linecap="round" stroke-linejoin="round"/>
<path id="Vector_105" d="M17.2704 18.0336C17.1744 17.3712 17.0592 16.7424 16.9632 16.176C16.9536 16.1184 16.944 16.0608 16.9344 16.0032C16.9344 15.9984 16.9296 15.9936 16.9296 15.984V15.9792C17.2848 15.7104 18.2304 15.2832 18.624 15.0672C17.568 15.6048 18.8688 18.7152 18.7392 20.4384C18.696 21.0096 18.6336 21.48 18.5664 21.8832C18.0384 21.7488 17.6256 21.5856 17.4288 21.3888C17.424 21.3792 17.4144 21.3744 17.4096 21.3696C17.5248 20.3472 17.4384 19.2624 17.2944 18.24C17.2896 18.1728 17.28 18.1056 17.2704 18.0336Z" fill="#E38F3E"/>
<path id="Vector_106" opacity="0.6" d="M25.5648 33.7008C25.5552 33.7872 25.5504 33.7584 25.5456 33.8448" stroke="white" stroke-width="0.222154" stroke-miterlimit="10" stroke-linecap="round" stroke-linejoin="round"/>
<path id="Vector_107" opacity="0.6" d="M25.6896 32.928C25.6896 32.928 25.6608 33.0528 25.6272 33.2928" stroke="white" stroke-width="0.222154" stroke-miterlimit="10" stroke-linecap="round" stroke-linejoin="round"/>
<path id="Vector_108" d="M26.592 34.752L26.0496 34.392C26.1696 33.5424 26.5344 32.3232 26.5344 32.3232L26.952 32.8992C26.8176 33.2352 26.6304 33.864 26.592 34.752Z" fill="#D87A3A"/>
<path id="Vector_109" opacity="0.1" d="M25.2288 34.896L25.152 35.568H24.7104" stroke="black" stroke-width="0.222154" stroke-miterlimit="10" stroke-linecap="round" stroke-linejoin="round"/>
<path id="Vector_110" opacity="0.1" d="M24.3456 35.568H24.2208" stroke="black" stroke-width="0.222154" stroke-miterlimit="10" stroke-linecap="round" stroke-linejoin="round"/>
<path id="Vector_111" opacity="0.2" d="M27.096 24.072L25.6512 23.7696L25.32 23.04H23.1936C23.1936 23.04 23.3136 23.1408 23.6928 23.184C24.2688 23.2464 25.1808 23.2224 25.1808 23.2224C25.1808 23.2224 25.344 23.5584 25.5024 23.9424C25.9968 24.0288 27.096 24.072 27.096 24.072Z" fill="black"/>
<path id="Vector_112" d="M16.8191 15.1872C17.8223 13.968 19.1807 13.0176 20.7503 12.456C21.7535 12.1008 22.8431 11.904 23.9807 11.904C25.1183 11.904 26.2079 12.1008 27.2111 12.456C28.7807 13.0128 30.1391 13.968 31.1423 15.1872C32.2991 16.584 32.0207 22.8624 31.9103 24.2256C31.8287 24.8112 31.6751 25.3488 31.4783 25.8192C31.4735 25.824 31.4735 25.8336 31.4687 25.8384C31.2191 26.4336 30.9023 26.928 30.5951 27.288C30.4559 28.608 30.4271 30.6192 30.3023 31.9584C29.8175 32.808 29.5727 33.2448 28.8431 34.0272L28.5311 34.3392C28.2671 34.6032 27.9839 34.8864 27.6863 35.184L27.5039 35.3664C27.5039 35.3664 27.4895 35.3808 27.4559 35.424C27.4367 35.4432 27.4223 35.4624 27.4079 35.4816C27.3359 35.5632 27.2207 35.7024 27.0431 35.9184C26.9951 35.976 26.9423 36.0384 26.8943 36.1008H23.9759H21.0575C21.0095 36.0384 20.9567 35.9808 20.9087 35.9184C20.7311 35.7072 20.6159 35.568 20.5439 35.4816C20.5295 35.4624 20.5103 35.4432 20.4959 35.424C20.4623 35.3856 20.4479 35.3664 20.4479 35.3664L20.2655 35.184C19.9679 34.8864 19.6895 34.6032 19.4207 34.3392L19.1087 34.0272C18.3791 33.2448 18.1343 32.8128 17.6495 31.9584C17.5295 30.6192 17.4959 28.608 17.3567 27.288C17.0495 26.928 16.7327 26.4384 16.4831 25.8384C16.4783 25.8336 16.4783 25.8288 16.4735 25.8192C16.2767 25.3488 16.1231 24.8112 16.0415 24.2256C15.9407 22.8672 15.6623 16.5888 16.8191 15.1872ZM17.5343 23.808C17.8031 24.0096 19.3967 24.2208 19.9679 24.1728C21.4271 24.0528 22.1663 23.8176 22.3103 23.7744C22.5695 23.2176 22.6415 23.0784 22.6415 23.0784H23.9807H25.3199C25.3199 23.0784 25.3919 23.2176 25.6511 23.7744C25.7999 23.8176 26.5343 24.0528 27.9935 24.1728C28.5647 24.2208 30.1583 24.0096 30.4271 23.808C30.6719 23.0784 30.7919 22.2288 30.7919 22.2288C30.7919 22.2288 30.6383 21.816 30.5327 21.3936C29.6975 22.2432 24.9263 22.44 24.1055 22.464C24.0815 22.464 24.0623 22.4688 24.0479 22.4688C24.0431 22.4688 24.0431 22.4688 24.0383 22.4688C23.9999 22.4736 23.9807 22.4736 23.9807 22.4736C23.9807 22.4736 23.9615 22.4736 23.9231 22.4688C23.9183 22.4688 23.9183 22.4688 23.9135 22.4688C23.8991 22.4688 23.8799 22.4688 23.8559 22.464C23.0303 22.4352 18.2639 22.2432 17.4287 21.3936C17.3231 21.8112 17.1695 22.2288 17.1695 22.2288C17.1695 22.2288 17.2895 23.0784 17.5343 23.808Z" stroke="#171717" stroke-width="0.192" stroke-miterlimit="10" stroke-linecap="round" stroke-linejoin="round"/>
</g>
</g>
<path id="Heropedia" d="M55.315 37.07C55.9217 33.85 56.5167 30.6883 57.1 27.585C57.31 26.2783 57.5433 24.925 57.8 23.525C58.0567 22.1017 58.3017 20.7017 58.535 19.325C58.7683 17.9483 58.99 16.6183 59.2 15.335C59.41 14.0283 59.5967 12.8383 59.76 11.765L65.43 11.38C65.0333 13.0133 64.6367 14.7167 64.24 16.49C63.8667 18.2633 63.5167 19.99 63.19 21.67L66.655 21.285C66.9817 19.6283 67.2733 18.03 67.53 16.49C67.7867 14.9267 68.125 13.3167 68.545 11.66C69.0817 11.5667 69.6767 11.4967 70.33 11.45C70.9833 11.38 71.59 11.3217 72.15 11.275C72.71 11.2283 73.1767 11.1933 73.55 11.17C73.9467 11.1233 74.145 11.1 74.145 11.1C73.8183 12.15 73.5033 13.305 73.2 14.565C72.92 15.8017 72.64 17.0967 72.36 18.45C72.08 19.78 71.8117 21.1333 71.555 22.51C71.2983 23.8867 71.065 25.1933 70.855 26.43C70.3417 29.3933 69.8633 32.4267 69.42 35.53L63.96 36.16C64.2633 34.76 64.5317 33.395 64.765 32.065C64.9983 30.945 65.2317 29.7783 65.465 28.565C65.7217 27.3517 65.92 26.3133 66.06 25.45L62.665 25.765C62.5017 26.6517 62.3033 27.6783 62.07 28.845C61.86 30.0117 61.6617 31.12 61.475 32.17C61.2183 33.43 60.9617 34.69 60.705 35.95L55.315 37.07ZM70.7634 37.035L75.3484 12.15L86.4084 11.205C86.2451 11.7183 86.1051 12.2433 85.9884 12.78C85.8717 13.2233 85.7551 13.69 85.6384 14.18C85.5451 14.6467 85.4634 15.0667 85.3934 15.44C85.1601 15.4633 84.8217 15.4867 84.3784 15.51C83.9584 15.51 83.5034 15.5217 83.0134 15.545C82.5234 15.545 82.0217 15.545 81.5084 15.545C81.0184 15.545 80.5867 15.545 80.2134 15.545L78.9884 21.81C79.7117 21.7633 80.3884 21.7283 81.0184 21.705C81.5317 21.6817 82.0567 21.67 82.5934 21.67C83.1301 21.67 83.5267 21.6583 83.7834 21.635C83.6901 22.2883 83.5967 22.93 83.5034 23.56C83.4334 24.19 83.3401 24.8317 83.2234 25.485C82.9901 25.5083 82.6051 25.5317 82.0684 25.555C81.5551 25.555 81.0301 25.5667 80.4934 25.59C79.8867 25.6133 79.2217 25.6367 78.4984 25.66L77.3084 32.1L82.4184 31.295L82.0684 35.285L70.7634 37.035ZM82.5521 37.035C83.1821 33.9317 83.7888 30.8983 84.3721 27.935C84.5821 26.675 84.8154 25.3683 85.0721 24.015C85.3288 22.6383 85.5621 21.285 85.7721 19.955C86.0054 18.6017 86.2154 17.3067 86.4021 16.07C86.6121 14.81 86.7754 13.6667 86.8921 12.64C88.2221 12.22 89.6571 11.9167 91.1971 11.73C92.7371 11.52 94.2654 11.415 95.7821 11.415C96.6921 11.415 97.4388 11.52 98.0221 11.73C98.6288 11.94 99.0954 12.2433 99.4221 12.64C99.7721 13.0133 100.017 13.4567 100.157 13.97C100.297 14.4833 100.367 15.055 100.367 15.685C100.367 16.6183 100.204 17.54 99.8771 18.45C99.5504 19.3367 99.1071 20.1883 98.5471 21.005C98.0104 21.7983 97.3804 22.5333 96.6571 23.21C95.9571 23.8633 95.1988 24.4 94.3821 24.82C94.8021 25.7533 95.2454 26.78 95.7121 27.9C96.2021 28.9967 96.6571 30.0467 97.0771 31.05C97.5438 32.2167 98.0221 33.3833 98.5121 34.55L93.0871 36.44C92.6204 34.9467 92.2004 33.5467 91.8271 32.24C91.6638 31.7033 91.5004 31.155 91.3371 30.595C91.1738 30.0117 91.0221 29.4633 90.8821 28.95C90.7421 28.4367 90.6254 27.9817 90.5321 27.585C90.4388 27.165 90.3804 26.8267 90.3571 26.57L89.9021 26.71C89.7621 27.4567 89.5871 28.3317 89.3771 29.335C89.1904 30.3383 89.0154 31.3067 88.8521 32.24C88.6421 33.3367 88.4321 34.445 88.2221 35.565L82.5521 37.035ZM90.7771 21.845C91.2204 21.7983 91.7571 21.6117 92.3871 21.285C93.0404 20.9583 93.6588 20.5733 94.2421 20.13C94.8254 19.6633 95.3271 19.185 95.7471 18.695C96.1671 18.205 96.3771 17.7733 96.3771 17.4C96.3771 17.1433 96.2954 16.945 96.1321 16.805C95.9688 16.6417 95.7354 16.525 95.4321 16.455C95.1521 16.3617 94.8371 16.3033 94.4871 16.28C94.1371 16.2567 93.7754 16.245 93.4021 16.245C93.1454 16.245 92.8771 16.2567 92.5971 16.28C92.3404 16.28 92.1071 16.28 91.8971 16.28L90.7771 21.845ZM117.564 18.065C117.564 19.9783 117.354 21.7867 116.934 23.49C116.537 25.17 116.001 26.7217 115.324 28.145C114.647 29.545 113.854 30.805 112.944 31.925C112.057 33.0217 111.124 33.9667 110.144 34.76C109.164 35.53 108.172 36.125 107.169 36.545C106.166 36.9417 105.209 37.14 104.299 37.14C103.529 37.14 102.829 37 102.199 36.72C101.569 36.4167 101.021 35.985 100.554 35.425C100.087 34.8417 99.7139 34.1067 99.4339 33.22C99.1772 32.31 99.0489 31.225 99.0489 29.965C99.0489 28.6583 99.2122 27.2817 99.5389 25.835C99.8655 24.3883 100.309 22.9533 100.869 21.53C101.429 20.1067 102.117 18.7533 102.934 17.47C103.751 16.1867 104.649 15.055 105.629 14.075C106.609 13.0717 107.659 12.2783 108.779 11.695C109.899 11.1117 111.066 10.82 112.279 10.82C113.329 10.82 114.192 11.0417 114.869 11.485C115.569 11.905 116.106 12.465 116.479 13.165C116.876 13.8417 117.156 14.6117 117.319 15.475C117.482 16.3383 117.564 17.2017 117.564 18.065ZM104.264 29.055C104.264 29.3117 104.311 29.58 104.404 29.86C104.497 30.14 104.626 30.385 104.789 30.595C104.952 30.805 105.151 30.9917 105.384 31.155C105.641 31.295 105.909 31.365 106.189 31.365C107.239 31.365 108.172 31.0033 108.989 30.28C109.806 29.5567 110.482 28.67 111.019 27.62C111.556 26.57 111.964 25.45 112.244 24.26C112.547 23.07 112.699 21.985 112.699 21.005C112.699 20.725 112.676 20.4217 112.629 20.095C112.606 19.7683 112.536 19.465 112.419 19.185C112.326 18.905 112.162 18.6717 111.929 18.485C111.719 18.275 111.427 18.17 111.054 18.17C110.307 18.17 109.619 18.3567 108.989 18.73C108.359 19.1033 107.787 19.605 107.274 20.235C106.784 20.8417 106.352 21.5417 105.979 22.335C105.606 23.105 105.279 23.8983 104.999 24.715C104.742 25.5083 104.556 26.29 104.439 27.06C104.322 27.83 104.264 28.495 104.264 29.055ZM115.12 37.035C115.82 33.885 116.485 30.805 117.115 27.795C117.371 26.535 117.64 25.205 117.92 23.805C118.2 22.405 118.468 21.0283 118.725 19.675C118.981 18.3217 119.226 17.015 119.46 15.755C119.693 14.495 119.891 13.34 120.055 12.29C120.731 12.08 121.396 11.905 122.05 11.765C122.703 11.6017 123.368 11.4617 124.045 11.345C124.745 11.2283 125.398 11.17 126.005 11.17C127.055 11.17 127.93 11.345 128.63 11.695C129.353 12.045 129.936 12.5233 130.38 13.13C130.823 13.7133 131.138 14.4017 131.325 15.195C131.511 15.9883 131.605 16.84 131.605 17.75C131.605 19.0567 131.36 20.3167 130.87 21.53C130.403 22.7433 129.761 23.8283 128.945 24.785C128.151 25.7183 127.23 26.465 126.18 27.025C125.153 27.585 124.08 27.865 122.96 27.865H122.575C122.388 28.6583 122.213 29.5217 122.05 30.455C121.886 31.3883 121.746 32.2517 121.63 33.045C121.466 33.9783 121.315 34.9117 121.175 35.845L115.12 37.035ZM124.885 15.405C124.628 16.945 124.371 18.4033 124.115 19.78C123.858 21.1567 123.578 22.6267 123.275 24.19C123.648 24.0967 124.033 23.8867 124.43 23.56C124.85 23.21 125.235 22.7667 125.585 22.23C125.935 21.67 126.215 21.0283 126.425 20.305C126.635 19.5817 126.74 18.8233 126.74 18.03C126.74 17.1667 126.541 16.5133 126.145 16.07C125.771 15.6267 125.351 15.405 124.885 15.405ZM128.766 37.035L133.351 12.15L144.411 11.205C144.248 11.7183 144.108 12.2433 143.991 12.78C143.875 13.2233 143.758 13.69 143.641 14.18C143.548 14.6467 143.466 15.0667 143.396 15.44C143.163 15.4633 142.825 15.4867 142.381 15.51C141.961 15.51 141.506 15.5217 141.016 15.545C140.526 15.545 140.025 15.545 139.511 15.545C139.021 15.545 138.59 15.545 138.216 15.545L136.991 21.81C137.715 21.7633 138.391 21.7283 139.021 21.705C139.535 21.6817 140.06 21.67 140.596 21.67C141.133 21.67 141.53 21.6583 141.786 21.635C141.693 22.2883 141.6 22.93 141.506 23.56C141.436 24.19 141.343 24.8317 141.226 25.485C140.993 25.5083 140.608 25.5317 140.071 25.555C139.558 25.555 139.033 25.5667 138.496 25.59C137.89 25.6133 137.225 25.6367 136.501 25.66L135.311 32.1L140.421 31.295L140.071 35.285L128.766 37.035ZM158.23 19.115C158.23 20.3283 158.055 21.6233 157.705 23C157.355 24.3533 156.865 25.7067 156.235 27.06C155.605 28.39 154.823 29.6733 153.89 30.91C152.98 32.1233 151.942 33.1967 150.775 34.13C149.608 35.04 148.325 35.775 146.925 36.335C145.548 36.895 144.078 37.175 142.515 37.175C142.188 37.175 141.862 37.1517 141.535 37.105C141.208 37.0817 140.882 37.0467 140.555 37C141.185 33.78 141.803 30.6417 142.41 27.585C142.643 26.3017 142.888 24.9717 143.145 23.595C143.402 22.195 143.647 20.8183 143.88 19.465C144.113 18.1117 144.335 16.8167 144.545 15.58C144.778 14.3433 144.965 13.2233 145.105 12.22C146.108 12.0333 147.123 11.8583 148.15 11.695C149.177 11.5317 150.227 11.45 151.3 11.45C152.56 11.45 153.622 11.6483 154.485 12.045C155.372 12.4417 156.083 12.99 156.62 13.69C157.18 14.39 157.588 15.2067 157.845 16.14C158.102 17.0733 158.23 18.065 158.23 19.115ZM149.97 16.385C149.713 17.7617 149.445 19.08 149.165 20.34C148.885 21.6 148.605 22.8717 148.325 24.155C148.045 25.4383 147.765 26.78 147.485 28.18C147.205 29.58 146.937 31.1083 146.68 32.765C147.24 32.3917 147.777 31.89 148.29 31.26C148.827 30.6067 149.328 29.86 149.795 29.02C150.262 28.18 150.682 27.2933 151.055 26.36C151.452 25.4267 151.79 24.5167 152.07 23.63C152.35 22.7433 152.56 21.915 152.7 21.145C152.863 20.375 152.945 19.71 152.945 19.15C152.945 18.2867 152.7 17.61 152.21 17.12C151.743 16.63 150.997 16.385 149.97 16.385ZM161.814 36.3C161.604 36.3 161.184 36.335 160.554 36.405C159.948 36.4517 159.318 36.5217 158.664 36.615C158.011 36.685 157.416 36.755 156.879 36.825C156.366 36.895 156.086 36.9417 156.039 36.965C156.273 35.9617 156.506 34.8533 156.739 33.64C156.996 32.4033 157.253 31.12 157.509 29.79C157.766 28.4367 158.011 27.0717 158.244 25.695C158.478 24.3183 158.699 22.9883 158.909 21.705C159.399 18.7183 159.889 15.65 160.379 12.5L165.839 11.625C165.303 14.7517 164.778 17.82 164.264 20.83C164.054 22.1133 163.833 23.4433 163.599 24.82C163.389 26.1967 163.168 27.5617 162.934 28.915C162.724 30.2683 162.526 31.5867 162.339 32.87C162.153 34.13 161.978 35.2733 161.814 36.3ZM175.819 36.3C175.236 36.3933 174.594 36.4983 173.894 36.615C173.194 36.7317 172.564 36.8367 172.004 36.93C172.098 36.16 172.191 35.4017 172.284 34.655C172.354 34.0017 172.413 33.3483 172.459 32.695C172.529 32.0417 172.588 31.4817 172.634 31.015H169.589L168.189 36.055C167.676 36.125 167.069 36.2067 166.369 36.3C165.669 36.37 165.016 36.44 164.409 36.51C163.663 36.6033 162.928 36.6967 162.204 36.79C163.138 33.6867 164.059 30.63 164.969 27.62C165.343 26.36 165.728 25.0417 166.124 23.665C166.544 22.2883 166.953 20.9233 167.349 19.57C167.769 18.1933 168.166 16.875 168.539 15.615C168.913 14.355 169.239 13.2 169.519 12.15C171.106 12.0333 172.716 11.8933 174.349 11.73C176.006 11.5667 177.616 11.345 179.179 11.065C179.109 11.8117 179.028 12.745 178.934 13.865C178.864 14.9617 178.794 16.1633 178.724 17.47C178.654 18.7767 178.584 20.1417 178.514 21.565C178.444 22.9883 178.374 24.3883 178.304 25.765C178.188 28.985 178.059 32.4033 177.919 36.02C177.219 36.1367 176.519 36.23 175.819 36.3ZM170.429 27.515C170.523 27.515 170.686 27.515 170.919 27.515C171.176 27.4917 171.433 27.48 171.689 27.48C171.969 27.4567 172.226 27.445 172.459 27.445C172.693 27.4217 172.856 27.3983 172.949 27.375C172.949 27.235 172.961 27.0017 172.984 26.675C173.031 26.325 173.066 25.94 173.089 25.52C173.136 25.0767 173.183 24.5983 173.229 24.085C173.276 23.5717 173.323 23.07 173.369 22.58C173.463 21.39 173.579 20.1067 173.719 18.73L173.929 15.685L173.404 15.72L172.599 18.73L170.429 27.515Z" fill="#323232"/>
</g>
</svg>
